<?xml version="1.0" encoding="UTF-8" standalone="no"?>
<svg width="276px" height="50px" viewBox="0 0 276 50" version="1.1" xmlns="http://www.w3.org/2000/svg" xmlns:xlink="http://www.w3.org/1999/xlink">
    <!-- Generator: Sketch 3.6.1 (26313) - http://www.bohemiancoding.com/sketch -->
    <title>Artboard</title>
    <desc>Created with Sketch.</desc>
    <defs></defs>
    <g id="Page-1" stroke="none" stroke-width="1" fill="none" fill-rule="evenodd">
        <g id="Artboard" fill="#FFFFFF">
            <g id="CIRE_New_logo_No_Line_No_box---White">
                <path d="M22.2,49.742 L23.902,49.742 L23.902,38.937 L22.2,38.937 L22.2,49.742 Z" id="Fill-1"></path>
                <path d="M35.656,49.918 L29.294,41.769 C29.111,41.53 28.881,41.226 28.765,40.938 L28.681,40.938 C28.681,41.162 28.701,41.609 28.701,42.025 L28.701,49.741 L27.276,49.741 L27.276,38.985 L29.096,38.857 L29.228,38.937 L34.581,45.98 C34.748,46.206 35.243,46.811 35.327,47.115 L35.393,47.115 C35.393,46.83 35.374,46.283 35.374,45.901 L35.374,38.937 L36.797,38.937 L36.797,49.918 L35.656,49.918" id="Fill-2"></path>
                <path d="M44.469,40.17 L44.469,49.742 L42.768,49.742 L42.768,40.17 L38.703,40.17 L38.703,38.937 L48.519,38.937 L48.519,40.17 L44.469,40.17" id="Fill-3"></path>
                <path d="M57.099,49.742 L50.421,49.742 L50.421,38.936 L56.9,38.936 L56.9,40.152 L52.124,40.152 L52.124,43.356 L56.388,43.356 L56.388,44.589 L52.124,44.589 L52.124,48.015 C52.124,48.428 52.339,48.525 52.636,48.525 L57.28,48.525 L57.099,49.742" id="Fill-4"></path>
                <path d="M66.361,49.822 L66.245,49.744 L61.701,44.14 L62.279,44.14 C63.7,44.14 65.056,43.58 65.056,41.995 C65.056,40.314 63.832,39.978 62.23,39.978 L61.238,39.978 L61.238,49.744 L59.536,49.744 L59.536,38.936 L62.841,38.936 C64.691,38.936 66.889,39.336 66.889,41.706 C66.889,43.355 65.618,44.347 64.213,44.698 L68.427,49.693 L66.361,49.822" id="Fill-5"></path>
                <path d="M78.71,49.918 L72.347,41.769 C72.166,41.53 71.933,41.226 71.819,40.938 L71.735,40.938 C71.735,41.162 71.753,41.609 71.753,42.025 L71.753,49.741 L70.331,49.741 L70.331,38.985 L72.149,38.857 L72.282,38.937 L77.636,45.98 C77.802,46.206 78.297,46.811 78.38,47.115 L78.447,47.115 C78.447,46.83 78.428,46.283 78.428,45.901 L78.428,38.937 L79.851,38.937 L79.851,49.918 L78.71,49.918" id="Fill-6"></path>
                <path d="M90.41,49.821 L90.278,49.744 L89.005,46.361 L84.526,46.361 L83.121,49.744 L82.989,49.821 L81.685,49.694 L86.427,38.649 L87.717,38.649 L92.095,49.694 L90.41,49.821 L90.41,49.821 Z M87.286,41.853 C87.104,41.386 86.923,40.904 86.888,40.475 L86.824,40.475 C86.774,40.904 86.541,41.451 86.359,41.882 L84.94,45.291 L88.592,45.291 L87.286,41.853 L87.286,41.853 Z" id="Fill-7"></path>
                <path d="M97.048,40.17 L97.048,49.742 L95.347,49.742 L95.347,40.17 L91.279,40.17 L91.279,38.937 L101.098,38.937 L101.098,40.17 L97.048,40.17" id="Fill-8"></path>
                <path d="M103.036,49.742 L104.737,49.742 L104.737,38.937 L103.036,38.937 L103.036,49.742 Z" id="Fill-9"></path>
                <path d="M112.627,50 C109.354,50 107.106,48.062 107.106,44.348 C107.106,40.794 109.85,38.635 112.627,38.635 C115.6,38.635 118.146,40.378 118.146,44.348 C118.146,47.613 115.668,50 112.627,50 M112.609,39.803 C110.89,39.803 108.958,40.762 108.958,44.348 C108.958,47.772 110.758,48.83 112.627,48.83 C114.495,48.83 116.295,47.772 116.295,44.348 C116.295,40.873 114.445,39.803 112.609,39.803" id="Fill-10"></path>
                <path d="M128.899,49.918 L122.539,41.769 C122.356,41.53 122.123,41.226 122.008,40.938 L121.925,40.938 C121.925,41.162 121.943,41.609 121.943,42.025 L121.943,49.741 L120.521,49.741 L120.521,38.985 L122.338,38.857 L122.47,38.937 L127.826,45.98 C127.992,46.206 128.488,46.811 128.571,47.115 L128.636,47.115 C128.636,46.83 128.62,46.283 128.62,45.901 L128.62,38.937 L130.041,38.937 L130.041,49.918 L128.899,49.918" id="Fill-11"></path>
                <path d="M140.599,49.821 L140.467,49.744 L139.194,46.361 L134.715,46.361 L133.311,49.744 L133.178,49.821 L131.873,49.694 L136.617,38.649 L137.906,38.649 L142.285,49.694 L140.599,49.821 L140.599,49.821 Z M137.476,41.853 C137.292,41.386 137.113,40.904 137.078,40.475 L137.012,40.475 C136.964,40.904 136.731,41.451 136.549,41.882 L135.13,45.291 L138.78,45.291 L137.476,41.853 L137.476,41.853 Z" id="Fill-12"></path>
                <path d="M150.792,49.742 L144.115,49.742 L144.115,38.936 L145.817,38.936 L145.817,48.015 C145.817,48.428 146.033,48.525 146.328,48.525 L150.974,48.525 L150.792,49.742" id="Fill-13"></path>
                <path d="M163.942,49.822 L163.825,49.744 L159.281,44.14 L159.859,44.14 C161.281,44.14 162.636,43.58 162.636,41.995 C162.636,40.314 161.413,39.978 159.812,39.978 L158.817,39.978 L158.817,49.744 L157.117,49.744 L157.117,38.936 L160.421,38.936 C162.272,38.936 164.471,39.336 164.471,41.706 C164.471,43.355 163.198,44.347 161.793,44.698 L166.007,49.693 L163.942,49.822" id="Fill-14"></path>
                <path d="M174.587,49.742 L167.911,49.742 L167.911,38.936 L174.388,38.936 L174.388,40.152 L169.613,40.152 L169.613,43.356 L173.875,43.356 L173.875,44.589 L169.613,44.589 L169.613,48.015 C169.613,48.428 169.827,48.525 170.125,48.525 L174.769,48.525 L174.587,49.742" id="Fill-15"></path>
                <path d="M184.663,49.821 L184.529,49.744 L183.257,46.361 L178.777,46.361 L177.371,49.744 L177.242,49.821 L175.937,49.694 L180.679,38.649 L181.967,38.649 L186.348,49.694 L184.663,49.821 L184.663,49.821 Z M181.537,41.853 C181.357,41.386 181.174,40.904 181.14,40.475 L181.075,40.475 C181.024,40.904 180.796,41.451 180.613,41.882 L179.192,45.291 L182.843,45.291 L181.537,41.853 L181.537,41.853 Z" id="Fill-16"></path>
                <path d="M194.854,49.742 L188.179,49.742 L188.179,38.936 L189.881,38.936 L189.881,48.015 C189.881,48.428 190.096,48.525 190.394,48.525 L195.038,48.525 L194.854,49.742" id="Fill-17"></path>
                <path d="M207.857,49.742 L201.18,49.742 L201.18,38.936 L207.659,38.936 L207.659,40.152 L202.88,40.152 L202.88,43.356 L207.145,43.356 L207.145,44.589 L202.88,44.589 L202.88,48.015 C202.88,48.428 203.097,48.525 203.395,48.525 L208.037,48.525 L207.857,49.742" id="Fill-18"></path>
                <path d="M212.685,49.966 C211.61,49.966 210.584,49.727 209.758,49.295 L210.256,48.062 C210.782,48.382 211.758,48.751 212.783,48.751 C213.938,48.751 215.279,48.252 215.279,46.974 C215.279,45.867 214.302,45.342 213.377,44.955 L212.023,44.379 C210.898,43.899 209.891,43.131 209.891,41.723 C209.891,39.801 211.777,38.665 213.709,38.665 C214.75,38.665 215.609,38.904 216.385,39.306 L215.808,40.602 C215.328,40.265 214.437,39.881 213.526,39.881 C212.237,39.881 211.46,40.427 211.46,41.288 C211.46,42.171 212.206,42.569 213.214,43.02 L214.684,43.658 C215.791,44.141 216.898,45.068 216.898,46.477 C216.898,48.67 214.865,49.966 212.685,49.966" id="Fill-19"></path>
                <path d="M223.822,40.17 L223.822,49.742 L222.12,49.742 L222.12,40.17 L218.052,40.17 L218.052,38.937 L227.871,38.937 L227.871,40.17 L223.822,40.17" id="Fill-20"></path>
                <path d="M235.638,49.821 L235.505,49.744 L234.231,46.361 L229.755,46.361 L228.35,49.744 L228.217,49.821 L226.911,49.694 L231.654,38.649 L232.943,38.649 L237.322,49.694 L235.638,49.821 L235.638,49.821 Z M232.514,41.853 C232.331,41.386 232.15,40.904 232.118,40.475 L232.051,40.475 C232.003,40.904 231.771,41.451 231.588,41.882 L230.167,45.291 L233.82,45.291 L232.514,41.853 L232.514,41.853 Z" id="Fill-21"></path>
                <path d="M242.275,40.17 L242.275,49.742 L240.574,49.742 L240.574,40.17 L236.507,40.17 L236.507,38.937 L246.324,38.937 L246.324,40.17 L242.275,40.17" id="Fill-22"></path>
                <path d="M254.904,49.742 L248.229,49.742 L248.229,38.936 L254.709,38.936 L254.709,40.152 L249.931,40.152 L249.931,43.356 L254.193,43.356 L254.193,44.589 L249.931,44.589 L249.931,48.015 C249.931,48.428 250.145,48.525 250.443,48.525 L255.088,48.525 L254.904,49.742" id="Fill-23"></path>
                <path d="M32.139,9.92 C30.35,5.48 25.689,2.57 19.782,2.57 C10.731,2.57 5.092,8.345 5.092,16.361 C5.092,25.003 12.141,31.347 20.376,31.347 C24.658,31.347 29.916,30.059 33.601,24.285 L34.633,24.285 C33.924,26.432 32.466,29.393 31.164,31.253 C27.692,30.823 25.309,32.541 18.915,32.541 C7.911,32.541 0,26.148 0,17.317 C0,8.058 8.129,1.376 19.457,1.376 C26.285,1.376 29.214,3.286 30.893,3.286 C31.49,3.286 31.759,3.143 31.868,3 L32.682,3 L33.168,9.92 L32.139,9.92 L32.139,9.92 Z M46.11,17.602 L46.11,26.671 C46.11,29.775 46.815,30.872 50.446,30.872 L50.611,30.872 L50.611,31.777 L37.004,31.777 L37.004,30.872 L37.33,30.872 C40.528,30.872 41.611,30.108 41.611,27.388 L41.611,6.39 C41.611,3.905 40.689,3.188 37.709,3 L37.709,2.092 L50.611,2.092 L50.611,3 C46.762,3 46.11,3.905 46.11,7.581 L46.11,15.884 L67.357,15.884 L67.357,6.484 C67.357,3.953 66.435,3 63.073,3 L62.044,3 L62.044,2.092 L75.974,2.092 L75.974,3 C72.722,3.095 71.852,3.953 71.852,6.914 L71.852,26.72 C71.852,30.108 72.939,30.872 76.191,30.872 L76.731,30.872 L76.731,31.777 L61.393,31.777 L61.393,30.872 L63.073,30.872 C66.6,30.872 67.357,29.775 67.357,27.29 L67.357,17.602 L46.11,17.602 L46.11,17.602 Z M89.144,18.843 L89.144,27.196 C89.144,29.869 90.065,30.872 93.48,30.872 L95.268,30.872 L95.268,31.777 L80.256,31.777 L80.256,30.872 L81.016,30.872 C83.833,30.872 84.648,30.346 84.648,28.102 L84.648,5.529 C84.648,3.762 83.996,3 82.099,3 L79.39,3 L79.39,2.092 C80.906,2.046 83.563,1.901 86.219,1.807 C88.873,1.711 91.478,1.662 92.937,1.662 C104.266,1.662 106.868,6.437 106.868,10.112 C106.868,15.695 101.825,17.747 100.472,18.176 L106.92,26.766 C107.683,27.77 109.036,29.201 109.903,30.059 C110.661,30.729 111.366,31.111 112.936,31.54 L112.936,32.401 L112.235,32.401 C106.975,32.401 103.833,30.059 98.251,21.947 C97.275,20.515 96.625,19.8 95.973,19.131 C95.973,19.131 92.072,19.465 89.144,18.843 L89.144,18.843 Z M89.144,17.938 C89.848,18.079 91.043,18.316 92.072,18.316 C97.979,18.316 101.772,14.786 101.772,9.967 C101.772,6.245 100.094,2.57 92.884,2.57 C91.637,2.57 90.444,2.57 89.144,2.76 L89.144,17.938 L89.144,17.938 Z M129.035,31.777 L115.865,31.777 L115.865,30.872 C119.225,30.729 119.93,29.966 119.93,26.766 L119.93,6.437 C119.93,3.858 118.898,3.143 115.865,3 L115.865,2.092 L129.035,2.092 L129.035,3 C125.62,3 124.426,3.668 124.426,6.866 L124.426,27.103 C124.426,29.917 125.294,30.872 129.035,30.872 L129.035,31.777 L129.035,31.777 Z M134.875,24.524 C136.014,28.772 139.806,31.253 144.033,31.253 C147.665,31.253 151.513,29.393 151.513,25.622 C151.513,18.749 134.117,16.65 134.117,8.296 C134.117,4.335 138.236,1.376 143.766,1.376 C148.314,1.376 149.237,2.57 151.136,2.57 C151.565,2.57 151.782,2.476 152.108,2.092 L152.978,2.092 L153.898,8.153 L152.978,8.153 C151.459,4.716 147.991,2.523 144.249,2.523 C140.675,2.523 138.182,4.335 138.182,7.008 C138.182,13.784 155.579,15.599 155.579,24.381 C155.579,29.06 150.863,32.541 144.522,32.541 C141.54,32.541 137.75,31.253 136.988,31.253 C136.505,31.253 136.12,31.493 135.906,31.777 L134.984,31.777 L133.847,24.524 L134.875,24.524 L134.875,24.524 Z M176.443,27.388 C176.443,29.966 177.42,30.872 180.727,30.872 L182.732,30.872 L182.732,31.777 L165.659,31.777 L165.659,30.872 L167.662,30.872 C170.972,30.872 171.947,29.966 171.947,27.388 L171.947,3.81 L162.518,3.81 C160.348,3.81 159.373,4.909 158.56,9.108 L157.583,9.108 L158.451,1.376 L159.479,1.376 C159.536,1.662 159.751,1.855 160.074,1.95 C160.402,2.046 160.783,2.092 161.161,2.092 L187.232,2.092 C187.991,2.092 188.801,1.95 188.911,1.376 L189.94,1.376 L190.809,9.108 L189.832,9.108 C189.02,4.909 188.043,3.81 185.876,3.81 L176.443,3.81 L176.443,27.388 L176.443,27.388 Z M208.14,31.777 L194.97,31.777 L194.97,30.872 C198.33,30.729 199.033,29.966 199.033,26.766 L199.033,6.437 C199.033,3.858 198.005,3.143 194.97,3 L194.97,2.092 L208.14,2.092 L208.14,3 C204.725,3 203.533,3.668 203.533,6.866 L203.533,27.103 C203.533,29.917 204.399,30.872 208.14,30.872 L208.14,31.777 L208.14,31.777 Z M235.716,21.041 L234.684,21.041 C234.252,17.649 233.22,17.27 231.002,17.27 L221.838,17.27 L221.838,27.436 C221.838,29.629 222.76,30.059 224.765,30.059 L233.111,30.059 C236.904,30.059 238.042,28.772 239.398,24.666 L240.375,24.666 L239.506,31.777 L210.729,31.777 L210.729,30.872 L212.245,30.872 C216.581,30.872 217.341,29.823 217.341,26.958 L217.341,6.817 C217.341,4.144 216.636,3 213.004,3 L211.812,3 L211.812,2.092 L237.827,2.092 L238.259,8.726 L237.284,8.726 C236.581,4.67 235.225,3.81 233.274,3.81 L221.838,3.81 L221.838,15.551 L231.539,15.551 C233.49,15.551 234.412,14.742 234.684,11.972 L235.716,11.972 L235.716,21.041 L235.716,21.041 Z M244.059,10.396 C246.771,9.014 248.234,7.34 248.234,5.625 C248.234,5.053 248.021,4.623 247.477,4.623 C246.988,4.623 246.771,4.763 246.177,4.763 C244.765,4.763 243.734,3.858 243.734,2.617 C243.734,1.329 245.037,0.279 246.662,0.279 C248.832,0.279 250.455,1.95 250.455,4.241 C250.455,7.199 248.021,10.063 244.441,11.254 L244.059,10.396 L244.059,10.396 Z M254.836,24.524 C255.976,28.772 259.765,31.253 263.996,31.253 C267.624,31.253 271.476,29.393 271.476,25.622 C271.476,18.749 254.075,16.65 254.075,8.296 C254.075,4.335 258.194,1.376 263.724,1.376 C268.274,1.376 269.196,2.57 271.095,2.57 C271.529,2.57 271.745,2.476 272.073,2.092 L272.938,2.092 L273.859,8.153 L272.938,8.153 C271.422,4.716 267.951,2.523 264.211,2.523 C260.636,2.523 258.142,4.335 258.142,7.008 C258.142,13.784 275.541,15.599 275.541,24.381 C275.541,29.06 270.823,32.541 264.485,32.541 C261.501,32.541 257.708,31.253 256.949,31.253 C256.461,31.253 256.083,31.493 255.865,31.777 L254.942,31.777 L253.806,24.524 L254.836,24.524 L254.836,24.524 Z" id="Fill-24"></path>
            </g>
        </g>
    </g>
</svg>