<?xml version="1.0" encoding="UTF-8" standalone="no"?>
<svg width="260px" height="71px" viewBox="0 0 260 71" version="1.1" xmlns="http://www.w3.org/2000/svg" xmlns:xlink="http://www.w3.org/1999/xlink">
    <!-- Generator: Sketch 3.6.1 (26313) - http://www.bohemiancoding.com/sketch -->
    <title>Artboard</title>
    <desc>Created with Sketch.</desc>
    <defs>
        <path id="path-1" d="M105.195,0.399 L0.06,0.399 L0.06,41.927 L210.33,41.927 L210.33,0.399 L105.195,0.399 L105.195,0.399 Z"></path>
    </defs>
    <g id="Page-1" stroke="none" stroke-width="1" fill="none" fill-rule="evenodd">
        <g id="Artboard">
            <g id="LPI_reverse_Horizontal-Logo">
                <path d="M2.689,20.705 C2.689,19.081 2.667,18.532 2.644,17.481 C2.62,16.131 2.23,15.948 0.354,15.948 C0.103,15.948 0.103,15.763 0.103,15.558 C0.103,15.425 0.152,15.262 0.311,15.262 C0.494,15.262 2.369,15.354 3.81,15.354 C5.273,15.354 7.262,15.262 7.447,15.262 C7.605,15.262 7.652,15.425 7.652,15.558 C7.652,15.763 7.652,15.948 7.4,15.948 C5.411,15.948 5.022,16.131 4.999,17.481 C4.978,18.532 4.954,19.081 4.954,20.705 L4.954,26.31 C4.954,27.293 4.978,28.78 5.022,29.924 C5.043,30.747 5.685,30.859 7.425,30.859 C10.947,30.859 12.615,30.747 13.689,27.501 C13.852,27.018 13.805,26.858 14.01,26.858 C14.445,26.858 14.491,26.928 14.491,27.132 C14.491,27.247 14.01,29.122 13.623,31.431 C13.6,31.569 13.508,31.617 13.395,31.617 C13.143,31.617 12.867,31.569 3.924,31.569 C0.562,31.569 0.472,31.617 0.311,31.617 C0.126,31.617 0.126,31.524 0.126,31.321 C0.126,31.067 0.126,30.929 0.653,30.929 C2.461,30.929 2.598,30.54 2.62,29.924 C2.667,28.78 2.689,27.293 2.689,26.31 L2.689,20.705" id="Fill-1" fill="#FFFFFF"></path>
                <path d="M21.194,24.845 C21.194,27.911 22.475,30.587 26.316,30.587 C28.995,30.587 31.304,29.101 31.304,23.657 L31.304,19.126 C31.304,15.95 30.641,15.95 28.286,15.95 C28.103,15.95 28.103,15.811 28.103,15.606 C28.103,15.332 28.17,15.263 28.286,15.263 C28.673,15.263 30.159,15.352 31.647,15.352 C32.355,15.352 34.299,15.263 34.621,15.263 C34.849,15.263 34.94,15.306 34.94,15.65 C34.94,15.742 34.919,15.95 34.735,15.95 C32.539,15.95 32.082,15.95 32.082,18.646 L32.082,24.067 C32.082,30.243 28.146,31.891 25.494,31.891 C20.371,31.891 18.93,28.46 18.93,25.943 L18.93,20.704 C18.93,19.082 18.906,18.532 18.882,17.478 C18.858,16.129 18.472,15.95 16.483,15.95 C16.23,15.95 16.23,15.763 16.23,15.56 C16.23,15.423 16.275,15.263 16.437,15.263 C16.618,15.263 18.609,15.352 20.051,15.352 C21.514,15.352 23.505,15.263 23.687,15.263 C23.846,15.263 23.895,15.423 23.895,15.56 C23.895,15.763 23.895,15.95 23.641,15.95 C21.651,15.95 21.262,16.129 21.241,17.478 C21.217,18.532 21.194,19.082 21.194,20.704 L21.194,24.845" id="Fill-2" fill="#FFFFFF"></path>
                <path d="M49.992,29.945 C50.493,30.77 51.02,30.93 52.026,30.93 C52.187,30.93 52.759,30.953 52.759,31.136 C52.759,31.571 52.759,31.616 52.554,31.616 C52.369,31.616 52.187,31.571 49.078,31.571 C46.173,31.571 45.965,31.616 45.76,31.616 C45.531,31.616 45.531,31.476 45.531,31.136 C45.531,30.93 46.448,30.93 46.605,30.93 C46.902,30.93 47.2,30.747 47.2,30.243 C47.2,29.786 46.332,28.574 44.205,24.937 C44.045,24.662 43.931,24.502 43.842,24.502 C43.746,24.502 43.541,24.867 43.175,25.304 C42.625,25.989 40.179,29.42 40.179,30.106 C40.179,30.334 40.179,30.93 41.597,30.93 C42.328,30.93 42.58,30.953 42.58,31.204 C42.58,31.504 42.534,31.616 42.353,31.616 C42.168,31.616 41.942,31.571 38.99,31.571 C36.564,31.571 36.429,31.616 36.29,31.616 C36.085,31.616 36.085,31.434 36.085,31.318 C36.085,31.019 36.13,30.93 36.589,30.93 C37.617,30.93 38.164,30.77 38.807,29.945 L43.062,24.432 C43.222,24.227 43.427,23.953 43.427,23.84 C43.427,23.518 40.591,18.989 39.494,17.295 C38.625,15.948 37.984,15.948 36.727,15.948 C36.589,15.948 36.564,15.766 36.564,15.627 C36.564,15.446 36.589,15.263 36.839,15.263 C37.848,15.263 39.08,15.352 39.858,15.352 C41.071,15.352 43.016,15.263 43.565,15.263 C43.725,15.263 43.77,15.446 43.77,15.58 C43.77,15.948 43.679,15.948 43.336,15.948 C42.398,15.948 41.965,15.948 41.965,16.564 C41.965,16.817 42.168,17.091 42.534,17.711 C44.479,20.866 45.007,21.78 45.074,21.78 C45.255,21.78 46.196,20.453 47.453,18.692 C48.025,17.893 48.208,17.344 48.208,16.956 C48.208,16.313 47.909,15.948 47.154,15.948 C46.469,15.948 46.354,15.948 46.354,15.606 C46.354,15.309 46.516,15.263 46.605,15.263 C46.996,15.263 48.618,15.352 49.327,15.352 C50.197,15.352 52.325,15.263 52.53,15.263 C52.759,15.263 52.759,15.423 52.759,15.627 C52.759,15.719 52.759,15.948 52.554,15.948 C50.906,15.948 50.54,16.268 49.83,17.024 C48.299,18.715 46.676,20.888 46.012,21.759 C45.668,22.192 45.531,22.445 45.531,22.489 C45.531,22.626 45.602,22.878 48.253,27.156 L49.992,29.945" id="Fill-3" fill="#FFFFFF"></path>
                <path d="M59.555,24.845 C59.555,27.911 60.835,30.587 64.677,30.587 C67.352,30.587 69.665,29.101 69.665,23.657 L69.665,19.126 C69.665,15.95 68.998,15.95 66.645,15.95 C66.46,15.95 66.46,15.811 66.46,15.606 C66.46,15.332 66.529,15.263 66.645,15.263 C67.033,15.263 68.52,15.352 70.006,15.352 C70.715,15.352 72.66,15.263 72.979,15.263 C73.209,15.263 73.299,15.306 73.299,15.65 C73.299,15.742 73.277,15.95 73.093,15.95 C70.898,15.95 70.439,15.95 70.439,18.646 L70.439,24.067 C70.439,30.243 66.506,31.891 63.854,31.891 C58.729,31.891 57.288,28.46 57.288,25.943 L57.288,20.704 C57.288,19.082 57.266,18.532 57.244,17.478 C57.221,16.129 56.831,15.95 54.841,15.95 C54.59,15.95 54.59,15.763 54.59,15.56 C54.59,15.423 54.635,15.263 54.797,15.263 C54.979,15.263 56.969,15.352 58.409,15.352 C59.873,15.352 61.863,15.263 62.046,15.263 C62.205,15.263 62.254,15.423 62.254,15.56 C62.254,15.763 62.254,15.95 62,15.95 C60.009,15.95 59.622,16.129 59.6,17.478 C59.575,18.532 59.555,19.082 59.555,20.704 L59.555,24.845" id="Fill-4" fill="#FFFFFF"></path>
                <path d="M77.737,20.705 C77.737,19.081 77.716,18.533 77.695,17.481 C77.669,16.131 77.28,15.946 75.634,15.946 C75.382,15.946 75.382,15.763 75.382,15.56 C75.382,15.421 75.429,15.263 75.588,15.263 C75.771,15.263 77.42,15.352 78.858,15.352 C79.453,15.352 80.848,15.263 82.197,15.263 C84.852,15.263 88.099,16.152 88.099,19.447 C88.099,21.643 86.933,22.72 84.418,23.725 C84.303,23.77 84.166,23.816 84.166,23.905 C84.166,24.046 85.309,26.148 87.436,28.71 C89.083,30.702 89.288,30.976 90.662,30.999 C90.822,30.999 90.822,31.136 90.822,31.272 C90.822,31.524 90.754,31.614 90.547,31.614 C90.434,31.614 90.342,31.569 88.673,31.569 C87.276,31.569 87.161,31.614 87.048,31.614 C86.843,31.614 86.773,31.614 86.635,31.434 C84.735,28.963 83.227,26.056 82.403,25.233 C81.466,24.297 80.942,24.297 80.002,24.32 L80.002,26.309 C80.002,27.294 80.024,28.78 80.072,29.924 C80.094,30.542 80.23,30.929 82.04,30.929 C82.679,30.929 82.679,31.067 82.679,31.316 C82.679,31.524 82.679,31.614 82.495,31.614 C82.336,31.614 82.245,31.569 78.858,31.569 C75.841,31.569 75.747,31.614 75.588,31.614 C75.406,31.614 75.406,31.524 75.406,31.316 C75.406,31.067 75.406,30.929 76.044,30.929 C77.509,30.929 77.646,30.542 77.669,29.924 C77.716,28.78 77.737,27.294 77.737,26.309 L77.737,20.705 L77.737,20.705 Z M81.879,23.634 C84.623,23.634 85.631,21.826 85.631,19.745 C85.631,17.64 84.348,15.946 81.718,15.946 C80.322,15.946 80.002,16.063 80.002,17.572 L80.002,23.634 L81.879,23.634 L81.879,23.634 Z" id="Fill-5" fill="#FFFFFF"></path>
                <path d="M92.977,16.747 C92.588,15.993 92.107,15.948 91.422,15.948 C90.804,15.948 90.758,15.924 90.758,15.583 C90.758,15.285 90.917,15.263 91.148,15.263 C92.107,15.263 93.068,15.352 94.029,15.352 C95.06,15.352 96.111,15.263 97.139,15.263 C97.506,15.263 97.597,15.309 97.597,15.606 C97.597,15.88 97.574,15.948 97.025,15.948 C96.202,15.948 95.768,16.107 95.768,16.656 C95.768,16.954 96.155,17.847 98.88,22.948 C99.244,23.634 99.312,23.84 99.449,23.84 C99.61,23.84 99.839,23.359 100.41,22.283 C102.881,17.755 103.108,17.113 103.108,16.747 C103.108,16.313 102.949,15.948 102.079,15.948 C101.118,15.948 101.075,15.88 101.075,15.583 C101.075,15.352 101.21,15.263 101.371,15.263 C101.599,15.263 103.498,15.352 103.819,15.352 C104.369,15.352 105.672,15.263 106.653,15.263 C106.884,15.263 106.952,15.396 106.952,15.583 C106.952,15.856 106.86,15.948 106.104,15.948 C104.711,15.948 104.275,16.68 103.864,17.481 L100.251,24.045 C99.77,24.913 99.725,25.007 99.725,26.309 C99.725,27.292 99.747,28.78 99.794,29.923 C99.815,30.54 99.951,30.93 101.758,30.93 C102.4,30.93 102.4,31.065 102.4,31.321 C102.4,31.526 102.4,31.617 102.217,31.617 C102.056,31.617 101.967,31.569 98.58,31.569 C95.218,31.569 95.127,31.617 94.966,31.617 C94.782,31.617 94.782,31.526 94.782,31.321 C94.782,31.065 94.782,30.93 95.423,30.93 C97.23,30.93 97.367,30.54 97.392,29.923 C97.438,28.78 97.46,27.292 97.46,26.309 C97.46,25.278 97.367,25.029 97.254,24.847 L92.977,16.747" id="Fill-6" fill="#FFFFFF"></path>
                <path d="M118.068,20.705 C118.068,19.081 118.047,18.533 118.022,17.481 C118,16.131 117.611,15.948 115.966,15.948 C115.714,15.948 115.714,15.763 115.714,15.56 C115.714,15.421 115.759,15.262 115.919,15.262 C116.102,15.262 117.75,15.354 119.188,15.354 C119.397,15.354 121.246,15.262 122.438,15.262 C127.905,15.262 128.476,18.853 128.476,19.791 C128.476,23.062 126.211,24.732 123.102,24.732 C122.187,24.732 121.272,24.685 120.335,24.502 C120.335,28.141 120.355,28.78 120.379,29.466 C120.426,30.381 120.561,30.929 122.92,30.929 C123.559,30.929 123.559,31.067 123.559,31.318 C123.559,31.524 123.559,31.614 123.375,31.614 C123.217,31.614 122.575,31.569 119.188,31.569 C115.829,31.569 115.736,31.614 115.574,31.614 C115.393,31.614 115.393,31.524 115.393,31.318 C115.393,31.067 115.393,30.929 116.034,30.929 C117.839,30.929 117.979,30.542 118,29.923 C118.047,28.78 118.068,27.293 118.068,26.31 L118.068,20.705 L118.068,20.705 Z M120.335,23.177 C120.335,23.701 120.471,24.045 121.638,24.045 C124.131,24.045 126.008,22.603 126.008,19.973 C126.008,17.618 124.496,15.948 122.254,15.948 C120.517,15.948 120.309,15.948 120.335,17.847 L120.335,23.177 L120.335,23.177 Z" id="Fill-7" fill="#FFFFFF"></path>
                <path d="M140.255,31.891 C134.104,31.891 131.793,26.997 131.793,23.931 C131.793,18.42 135.887,15.058 140.255,15.058 C145.105,15.058 148.742,17.962 148.742,23.816 C148.742,26.997 146.433,31.891 140.255,31.891 M140.255,15.65 C134.926,15.65 134.516,21.619 134.516,23.495 C134.516,26.652 136.046,31.295 140.255,31.295 C145.654,31.295 146.019,26.195 146.019,23.472 C146.019,20.202 144.488,15.65 140.255,15.65" id="Fill-8" fill="#FFFFFF"></path>
                <path d="M154.324,20.705 C154.324,19.081 154.303,18.533 154.279,17.481 C154.258,16.131 153.867,15.946 152.221,15.946 C151.969,15.946 151.969,15.763 151.969,15.56 C151.969,15.421 152.014,15.263 152.174,15.263 C152.357,15.263 154.006,15.352 155.441,15.352 C156.039,15.352 157.434,15.263 158.783,15.263 C161.438,15.263 164.686,16.152 164.686,19.447 C164.686,21.643 163.52,22.72 161.006,23.725 C160.891,23.77 160.754,23.816 160.754,23.905 C160.754,24.046 161.895,26.148 164.02,28.71 C165.67,30.702 165.877,30.976 167.248,30.999 C167.406,30.999 167.406,31.136 167.406,31.272 C167.406,31.524 167.34,31.614 167.133,31.614 C167.02,31.614 166.928,31.569 165.256,31.569 C163.861,31.569 163.748,31.614 163.635,31.614 C163.428,31.614 163.359,31.614 163.221,31.434 C161.324,28.963 159.813,26.056 158.99,25.233 C158.053,24.297 157.527,24.297 156.59,24.32 L156.59,26.309 C156.59,27.294 156.613,28.78 156.66,29.924 C156.68,30.542 156.818,30.929 158.625,30.929 C159.266,30.929 159.266,31.067 159.266,31.316 C159.266,31.524 159.266,31.614 159.08,31.614 C158.92,31.614 158.832,31.569 155.441,31.569 C152.426,31.569 152.336,31.614 152.174,31.614 C151.992,31.614 151.992,31.524 151.992,31.316 C151.992,31.067 151.992,30.929 152.633,30.929 C154.098,30.929 154.232,30.542 154.258,29.924 C154.303,28.78 154.324,27.294 154.324,26.309 L154.324,20.705 L154.324,20.705 Z M158.465,23.634 C161.211,23.634 162.215,21.826 162.215,19.745 C162.215,17.64 160.936,15.946 158.305,15.946 C156.908,15.946 156.59,16.063 156.59,17.572 L156.59,23.634 L158.465,23.634 L158.465,23.634 Z" id="Fill-9" fill="#FFFFFF"></path>
                <path d="M182.623,15.352 C183.469,15.352 183.676,14.783 184.039,14.783 C184.18,14.783 184.199,14.872 184.432,15.649 C185.184,18.257 185.436,18.692 185.436,18.761 C185.436,18.831 185.23,18.943 185.094,18.943 C184.932,18.943 184.865,18.92 184.773,18.784 C183.676,16.796 182.576,16.04 180.908,16.04 L178.115,16.04 C177.729,16.04 177.57,16.289 177.57,17.481 L177.57,26.309 C177.57,27.294 177.59,28.78 177.637,29.924 C177.66,30.542 177.799,30.93 179.604,30.93 C180.244,30.93 180.244,31.067 180.244,31.318 C180.244,31.524 180.244,31.616 180.061,31.616 C179.902,31.616 179.811,31.569 176.424,31.569 C173.061,31.569 172.971,31.616 172.813,31.616 C172.627,31.616 172.627,31.524 172.627,31.318 C172.627,31.067 172.627,30.93 173.266,30.93 C175.076,30.93 175.213,30.542 175.234,29.924 C175.281,28.78 175.305,27.294 175.305,26.309 L175.305,17.481 C175.305,16.04 175.076,16.04 174.297,16.04 L171.805,16.04 C170.111,16.04 168.969,17.435 168.074,18.784 C167.984,18.92 167.895,18.92 167.688,18.92 C167.48,18.92 167.369,18.831 167.369,18.761 C167.369,18.692 167.48,18.602 168.465,15.697 C168.555,15.445 168.604,14.783 168.811,14.783 C169.287,14.783 169.381,15.352 170.318,15.352 L182.623,15.352" id="Fill-10" fill="#FFFFFF"></path>
                <path d="M203.576,31.891 C197.424,31.891 195.113,26.997 195.113,23.931 C195.113,18.42 199.205,15.058 203.576,15.058 C208.424,15.058 212.063,17.962 212.063,23.816 C212.063,26.997 209.754,31.891 203.576,31.891 M203.576,15.65 C198.248,15.65 197.838,21.619 197.838,23.495 C197.838,26.652 199.367,31.295 203.576,31.295 C208.973,31.295 209.338,26.195 209.338,23.472 C209.338,20.202 207.811,15.65 203.576,15.65" id="Fill-11" fill="#FFFFFF"></path>
                <path d="M217.645,20.705 C217.645,19.081 217.621,18.532 217.598,17.481 C217.574,16.131 217.188,15.948 215.311,15.948 C215.059,15.948 215.059,15.763 215.059,15.558 C215.059,15.425 215.107,15.262 215.266,15.262 C215.447,15.262 217.324,15.354 218.764,15.354 C220.229,15.354 222.219,15.262 222.4,15.262 C222.561,15.262 222.607,15.425 222.607,15.558 C222.607,15.763 222.607,15.948 222.355,15.948 C220.363,15.948 219.977,16.131 219.953,17.481 C219.932,18.532 219.91,19.081 219.91,20.705 L219.91,26.31 C219.91,27.293 219.932,28.78 219.977,29.924 C220,30.747 220.641,30.859 222.379,30.859 C225.9,30.859 227.57,30.747 228.646,27.501 C228.807,27.018 228.762,26.858 228.969,26.858 C229.4,26.858 229.445,26.928 229.445,27.132 C229.445,27.247 228.969,29.122 228.578,31.431 C228.553,31.569 228.461,31.617 228.35,31.617 C228.096,31.617 227.822,31.569 218.879,31.569 C215.518,31.569 215.424,31.617 215.266,31.617 C215.082,31.617 215.082,31.524 215.082,31.321 C215.082,31.067 215.082,30.929 215.609,30.929 C217.416,30.929 217.555,30.54 217.574,29.924 C217.621,28.78 217.645,27.293 217.645,26.31 L217.645,20.705" id="Fill-12" fill="#FFFFFF"></path>
                <path d="M234.664,20.705 C234.664,19.081 234.641,18.532 234.617,17.481 C234.594,16.131 234.207,15.948 232.215,15.948 C231.963,15.948 231.963,15.763 231.963,15.558 C231.963,15.425 232.01,15.262 232.168,15.262 C232.352,15.262 234.344,15.354 235.783,15.354 C237.248,15.354 239.236,15.262 239.422,15.262 C239.58,15.262 239.627,15.425 239.627,15.558 C239.627,15.763 239.627,15.948 239.375,15.948 C237.383,15.948 236.996,16.131 236.973,17.481 C236.949,18.532 236.926,19.081 236.926,20.705 L236.926,26.31 C236.926,27.293 236.949,28.78 236.996,29.924 C237.02,30.54 237.156,30.929 238.965,30.929 C239.604,30.929 239.604,31.067 239.604,31.321 C239.604,31.524 239.604,31.617 239.422,31.617 C239.26,31.617 239.17,31.569 235.783,31.569 C232.422,31.569 232.332,31.617 232.168,31.617 C231.986,31.617 231.986,31.524 231.986,31.321 C231.986,31.067 231.986,30.929 232.627,30.929 C234.436,30.929 234.572,30.54 234.594,29.924 C234.641,28.78 234.664,27.293 234.664,26.31 L234.664,20.705" id="Fill-13" fill="#FFFFFF"></path>
                <path d="M250.947,31.891 C244.795,31.891 242.484,26.997 242.484,23.931 C242.484,18.42 246.578,15.058 250.947,15.058 C255.797,15.058 259.434,17.962 259.434,23.816 C259.434,26.997 257.123,31.891 250.947,31.891 M250.947,15.65 C245.617,15.65 245.207,21.619 245.207,23.495 C245.207,26.652 246.74,31.295 250.947,31.295 C256.346,31.295 256.713,26.195 256.713,23.472 C256.713,20.202 255.18,15.65 250.947,15.65" id="Fill-14" fill="#FFFFFF"></path>
                <g id="Group-18">
                    <mask id="mask-2" fill="white">
                        <use xlink:href="#path-1"></use>
                    </mask>
                    <g id="Clip-16"></g>
                    <path d="M188.678,15.791 L188.678,15.287 L191.934,15.287 C196.287,8.267 201.189,0.399 207.281,0.399 C209.061,0.399 210.33,1.164 210.33,2.728 C210.33,4.082 209.398,5.052 208.086,5.138 C208.297,4.375 208.465,3.702 208.465,2.77 C208.465,1.671 207.959,0.908 206.688,0.908 C202.465,0.908 197.936,9.449 194.346,15.287 L202.035,15.287 L202.035,15.791 L194.09,15.791 C183.266,34.274 177.727,41.927 168.174,41.927 C164.828,41.927 161.701,40.189 161.701,36.852 C161.701,34.651 162.971,32.877 166.229,32.877 L166.607,32.877 L166.607,33.214 C164.916,33.302 163.561,34.567 163.561,36.639 C163.561,39.556 165.256,41.418 168.385,41.418 C177.518,41.418 183.814,28.181 191.682,15.791 L188.678,15.791" id="Fill-15" fill="#FFFFFF" mask="url(#mask-2)"></path>
                    <path d="M0,37.769 L0,38.354 L161.588,38.354 C161.396,38.024 161.381,37.96 161.381,37.756 L0,37.769" id="Fill-17" fill="#FFFFFF" mask="url(#mask-2)"></path>
                </g>
                <path d="M259.855,37.769 L179.426,37.769 C179.111,37.995 178.727,38.216 178.428,38.354 L259.855,38.354 L259.855,37.769" id="Fill-19" fill="#FFFFFF"></path>
                <path d="M164.029,37.769 C164.086,37.98 164.078,38.05 164.277,38.354 L174.957,38.354 C175.322,38.212 175.908,37.96 176.246,37.768 L165.877,37.768 L164.029,37.769" id="Fill-20" fill="#FFFFFF"></path>
                <path d="M36.949,56.77 L38.96,56.77 L38.96,47.642 L36.949,47.642 L36.949,56.77 Z" id="Fill-21" fill="#FFFFFF"></path>
                <path d="M47.613,47.641 L50.347,47.641 L54.227,53.983 L54.253,53.983 L54.253,47.641 L56.265,47.641 L56.265,56.769 L53.634,56.769 L49.649,50.271 L49.623,50.271 L49.623,56.769 L47.613,56.769 L47.613,47.641" id="Fill-22" fill="#FFFFFF"></path>
                <path d="M66.711,49.421 L64.105,49.421 L64.105,47.641 L71.327,47.641 L71.327,49.421 L68.722,49.421 L68.722,56.769 L66.711,56.769 L66.711,49.421" id="Fill-23" fill="#FFFFFF"></path>
                <path d="M79.245,47.641 L85.448,47.641 L85.448,49.498 L81.255,49.498 L81.255,51.199 L85.216,51.199 L85.216,53.057 L81.255,53.057 L81.255,54.912 L85.678,54.912 L85.678,56.769 L79.245,56.769 L79.245,47.641" id="Fill-24" fill="#FFFFFF"></path>
                <path d="M94.114,47.641 L97.647,47.641 C99.516,47.641 101.089,48.285 101.089,50.412 C101.089,51.688 100.406,52.683 99.115,52.915 L101.438,56.769 L99.026,56.769 L97.117,53.12 L96.124,53.12 L96.124,56.769 L94.114,56.769 L94.114,47.641 L94.114,47.641 Z M96.124,51.419 L97.311,51.419 C98.046,51.419 99.001,51.396 99.001,50.399 C99.001,49.483 98.175,49.343 97.439,49.343 L96.124,49.343 L96.124,51.419 L96.124,51.419 Z" id="Fill-25" fill="#FFFFFF"></path>
                <path d="M109.292,47.641 L112.026,47.641 L115.906,53.983 L115.932,53.983 L115.932,47.641 L117.944,47.641 L117.944,56.769 L115.313,56.769 L111.329,50.271 L111.302,50.271 L111.302,56.769 L109.292,56.769 L109.292,47.641" id="Fill-26" fill="#FFFFFF"></path>
                <path d="M129.628,47.641 L131.291,47.641 L135.262,56.769 L132.993,56.769 L132.207,54.835 L128.661,54.835 L127.899,56.769 L125.682,56.769 L129.628,47.641 L129.628,47.641 Z M130.401,50.298 L129.293,53.134 L131.522,53.134 L130.401,50.298 L130.401,50.298 Z" id="Fill-27" fill="#FFFFFF"></path>
                <path d="M143.58,49.421 L140.976,49.421 L140.976,47.641 L148.197,47.641 L148.197,49.421 L145.591,49.421 L145.591,56.769 L143.58,56.769 L143.58,49.421" id="Fill-28" fill="#FFFFFF"></path>
                <path d="M156.012,56.77 L158.023,56.77 L158.023,47.642 L156.012,47.642 L156.012,56.77 Z" id="Fill-29" fill="#FFFFFF"></path>
                <path d="M171.113,47.408 C173.961,47.408 176.039,49.278 176.039,52.205 C176.039,55.131 173.961,57 171.113,57 C168.262,57 166.188,55.131 166.188,52.205 C166.188,49.278 168.262,47.408 171.113,47.408 M171.113,55.146 C172.828,55.146 173.949,53.906 173.949,52.205 C173.949,50.503 172.828,49.265 171.113,49.265 C169.398,49.265 168.275,50.503 168.275,52.205 C168.275,53.906 169.398,55.146 171.113,55.146" id="Fill-30" fill="#FFFFFF"></path>
                <path d="M184.229,47.641 L186.963,47.641 L190.842,53.983 L190.867,53.983 L190.867,47.641 L192.881,47.641 L192.881,56.769 L190.248,56.769 L186.266,50.271 L186.238,50.271 L186.238,56.769 L184.229,56.769 L184.229,47.641" id="Fill-31" fill="#FFFFFF"></path>
                <path d="M204.563,47.641 L206.227,47.641 L210.197,56.769 L207.93,56.769 L207.143,54.835 L203.598,54.835 L202.836,56.769 L200.617,56.769 L204.563,47.641 L204.563,47.641 Z M205.338,50.298 L204.229,53.134 L206.459,53.134 L205.338,50.298 L205.338,50.298 Z" id="Fill-32" fill="#FFFFFF"></path>
                <path d="M218.014,47.641 L220.027,47.641 L220.027,54.912 L223.752,54.912 L223.752,56.769 L218.014,56.769 L218.014,47.641" id="Fill-33" fill="#FFFFFF"></path>
                <path d="M225.43,50.102 L225.957,50.102 L225.957,49.278 L226.082,49.278 L226.572,50.102 L227.148,50.102 L226.598,49.251 C226.83,49.217 227.082,48.976 227.082,48.591 C227.082,48.074 226.609,47.958 226.117,47.958 L225.43,47.958 L225.43,50.102 L225.43,50.102 Z M225.951,48.387 L226.209,48.387 C226.342,48.387 226.555,48.397 226.555,48.619 C226.555,48.844 226.342,48.85 226.209,48.85 L225.951,48.85 L225.951,48.387 L225.951,48.387 Z M224.17,49.054 C224.17,50.18 225.088,51.095 226.215,51.095 C227.34,51.095 228.258,50.18 228.258,49.054 C228.258,47.927 227.34,47.01 226.215,47.01 C225.088,47.01 224.17,47.927 224.17,49.054 L224.17,49.054 Z M224.697,49.054 C224.697,48.168 225.361,47.472 226.215,47.472 C227.066,47.472 227.73,48.168 227.73,49.054 C227.73,49.938 227.066,50.636 226.215,50.636 C225.361,50.636 224.697,49.938 224.697,49.054 L224.697,49.054 Z" id="Fill-34" fill="#FFFFFF"></path>
            </g>
        </g>
    </g>
</svg>