<?xml version="1.0" encoding="UTF-8" standalone="no"?>
<svg width="463px" height="70px" viewBox="0 0 463 70" version="1.1" xmlns="http://www.w3.org/2000/svg" xmlns:xlink="http://www.w3.org/1999/xlink">
    <!-- Generator: Sketch 3.6.1 (26313) - http://www.bohemiancoding.com/sketch -->
    <title>Artboard</title>
    <desc>Created with Sketch.</desc>
    <defs></defs>
    <g id="Page-1" stroke="none" stroke-width="1" fill="none" fill-rule="evenodd">
        <g id="Artboard" fill="#FFFFFF">
            <g id="Horizontal-Centered-NoGlobeWHITE" transform="translate(0.000000, 10.000000)">
                <path d="M343.547,2.252 L339.574,2.359 C338.027,2.412 337.389,2.545 336.989,3.132 C336.722,3.531 336.59,3.852 336.534,4.065 C336.482,4.278 336.402,4.384 336.242,4.384 C336.055,4.384 336.002,4.252 336.002,3.958 C336.002,3.531 336.509,1.105 336.561,0.893 C336.642,0.546 336.722,0.386 336.883,0.386 C337.096,0.386 337.361,0.652 338.027,0.706 C338.802,0.786 339.814,0.839 340.693,0.839 L351.249,0.839 C352.103,0.839 352.688,0.76 353.088,0.706 C353.487,0.626 353.7,0.573 353.809,0.573 C353.994,0.573 354.021,0.733 354.021,1.133 C354.021,1.692 353.942,3.531 353.942,4.225 C353.915,4.491 353.863,4.652 353.7,4.652 C353.487,4.652 353.437,4.518 353.408,4.118 L353.381,3.825 C353.327,3.132 352.608,2.386 350.236,2.332 L346.878,2.252 L346.878,13.182 C346.878,15.633 346.878,17.739 347.011,18.885 C347.092,19.631 347.251,20.218 348.05,20.325 C348.424,20.378 349.012,20.431 349.41,20.431 C349.704,20.431 349.836,20.512 349.836,20.644 C349.836,20.831 349.624,20.912 349.33,20.912 C347.569,20.912 345.893,20.831 345.144,20.831 C344.53,20.831 342.854,20.912 341.785,20.912 C341.441,20.912 341.253,20.831 341.253,20.644 C341.253,20.512 341.359,20.431 341.68,20.431 C342.079,20.431 342.399,20.378 342.641,20.325 C343.172,20.218 343.333,19.631 343.412,18.859 C343.547,17.739 343.547,15.633 343.547,13.182 L343.547,2.252" id="Fill-1"></path>
                <path d="M366.496,12.621 C366.63,12.621 366.657,12.542 366.63,12.461 L364.231,5.878 C364.203,5.771 364.178,5.638 364.097,5.638 C364.018,5.638 363.966,5.771 363.938,5.878 L361.485,12.435 C361.459,12.542 361.485,12.621 361.592,12.621 L366.496,12.621 L366.496,12.621 Z M361.059,13.954 C360.927,13.954 360.871,14.008 360.819,14.167 L359.379,17.979 C359.114,18.646 358.979,19.285 358.979,19.605 C358.979,20.085 359.221,20.431 360.046,20.431 L360.445,20.431 C360.765,20.431 360.846,20.484 360.846,20.644 C360.846,20.858 360.686,20.912 360.391,20.912 C359.539,20.912 358.394,20.831 357.567,20.831 C357.274,20.831 355.808,20.912 354.422,20.912 C354.074,20.912 353.915,20.858 353.915,20.644 C353.915,20.484 354.021,20.431 354.235,20.431 C354.475,20.431 354.849,20.405 355.062,20.378 C356.288,20.219 356.796,19.312 357.326,17.979 L364.018,1.239 C364.339,0.467 364.496,0.173 364.766,0.173 C365.004,0.173 365.165,0.414 365.431,1.026 C366.07,2.492 370.334,13.368 372.043,17.419 C373.054,19.818 373.825,20.19 374.387,20.325 C374.786,20.405 375.187,20.431 375.506,20.431 C375.72,20.431 375.854,20.459 375.854,20.644 C375.854,20.858 375.612,20.912 374.625,20.912 C373.666,20.912 371.722,20.912 369.59,20.858 C369.11,20.831 368.789,20.831 368.789,20.644 C368.789,20.484 368.896,20.431 369.162,20.405 C369.349,20.351 369.535,20.111 369.402,19.791 L367.271,14.14 C367.216,14.008 367.137,13.954 367.003,13.954 L361.059,13.954 L361.059,13.954 Z" id="Fill-2"></path>
                <path d="M383.131,2.252 L379.158,2.359 C377.611,2.412 376.973,2.545 376.573,3.132 C376.306,3.531 376.174,3.852 376.118,4.065 C376.066,4.278 375.986,4.384 375.826,4.384 C375.639,4.384 375.586,4.252 375.586,3.958 C375.586,3.531 376.093,1.105 376.145,0.893 C376.227,0.546 376.306,0.386 376.467,0.386 C376.681,0.386 376.944,0.652 377.611,0.706 C378.386,0.786 379.398,0.839 380.276,0.839 L390.833,0.839 C391.686,0.839 392.272,0.76 392.672,0.706 C393.072,0.626 393.286,0.573 393.393,0.573 C393.578,0.573 393.604,0.733 393.604,1.133 C393.604,1.692 393.526,3.531 393.526,4.225 C393.499,4.491 393.447,4.652 393.286,4.652 C393.072,4.652 393.021,4.518 392.992,4.118 L392.965,3.825 C392.911,3.132 392.191,2.386 389.82,2.332 L386.462,2.252 L386.462,13.182 C386.462,15.633 386.462,17.739 386.596,18.885 C386.677,19.631 386.835,20.218 387.636,20.325 C388.008,20.378 388.596,20.431 388.995,20.431 C389.288,20.431 389.42,20.512 389.42,20.644 C389.42,20.831 389.208,20.912 388.914,20.912 C387.153,20.912 385.476,20.831 384.728,20.831 C384.114,20.831 382.438,20.912 381.371,20.912 C381.025,20.912 380.837,20.831 380.837,20.644 C380.837,20.512 380.943,20.431 381.264,20.431 C381.663,20.431 381.983,20.378 382.225,20.325 C382.756,20.218 382.917,19.631 382.996,18.859 C383.131,17.739 383.131,15.633 383.131,13.182 L383.131,2.252" id="Fill-3"></path>
                <path d="M401.175,8.49 C401.175,4.437 401.175,3.692 401.122,2.839 C401.07,1.932 400.854,1.505 399.975,1.32 C399.762,1.266 399.31,1.239 398.936,1.239 C398.644,1.239 398.481,1.186 398.481,0.999 C398.481,0.813 398.669,0.76 399.069,0.76 C399.788,0.76 400.563,0.786 401.229,0.786 C401.922,0.813 402.534,0.839 402.907,0.839 C403.761,0.839 409.064,0.839 409.571,0.813 C410.078,0.76 410.505,0.705 410.719,0.652 C410.852,0.626 411.011,0.546 411.145,0.546 C411.278,0.546 411.303,0.652 411.303,0.786 C411.303,0.973 411.171,1.292 411.091,2.518 C411.066,2.786 411.011,3.958 410.959,4.278 C410.932,4.411 410.878,4.571 410.691,4.571 C410.505,4.571 410.453,4.437 410.453,4.198 C410.453,4.011 410.425,3.558 410.291,3.239 C410.104,2.758 409.839,2.439 408.506,2.279 C408.052,2.226 405.254,2.173 404.72,2.173 C404.587,2.173 404.533,2.252 404.533,2.439 L404.533,9.182 C404.533,9.369 404.561,9.477 404.72,9.477 C405.308,9.477 408.371,9.477 408.984,9.422 C409.626,9.369 410.025,9.289 410.265,9.022 C410.453,8.81 410.559,8.676 410.691,8.676 C410.797,8.676 410.878,8.729 410.878,8.891 C410.878,9.05 410.771,9.477 410.666,10.835 C410.639,11.369 410.559,12.436 410.559,12.621 C410.559,12.835 410.559,13.127 410.319,13.127 C410.132,13.127 410.078,13.021 410.078,12.888 C410.053,12.621 410.053,12.275 409.971,11.928 C409.839,11.396 409.465,10.995 408.478,10.888 C407.971,10.835 405.333,10.81 404.695,10.81 C404.561,10.81 404.533,10.916 404.533,11.075 L404.533,13.181 C404.533,14.087 404.507,16.539 404.533,17.313 C404.587,19.152 405.013,19.552 407.734,19.552 C408.426,19.552 409.546,19.552 410.239,19.231 C410.932,18.912 411.251,18.353 411.438,17.259 C411.49,16.965 411.545,16.859 411.731,16.859 C411.945,16.859 411.945,17.073 411.945,17.339 C411.945,17.952 411.731,19.766 411.597,20.297 C411.411,20.991 411.171,20.991 410.159,20.991 C408.158,20.991 406.694,20.938 405.546,20.912 C404.402,20.858 403.575,20.831 402.775,20.831 C402.481,20.831 401.894,20.831 401.256,20.858 C400.642,20.858 399.95,20.912 399.417,20.912 C399.069,20.912 398.882,20.831 398.882,20.645 C398.882,20.512 398.988,20.431 399.31,20.431 C399.71,20.431 400.03,20.378 400.269,20.325 C400.801,20.218 400.936,19.631 401.042,18.859 C401.175,17.739 401.175,15.633 401.175,13.181 L401.175,8.49" id="Fill-4"></path>
                <path d="M49.919,13.182 C49.919,16.593 49.919,18.432 50.479,18.911 C50.931,19.312 51.625,19.498 53.704,19.498 C55.117,19.498 56.156,19.472 56.823,18.753 C57.143,18.405 57.462,17.658 57.516,17.152 C57.543,16.912 57.596,16.753 57.809,16.753 C57.996,16.753 58.022,16.887 58.022,17.205 C58.022,17.5 57.836,19.498 57.622,20.271 C57.462,20.858 57.33,20.99 55.943,20.99 C54.024,20.99 52.638,20.937 51.438,20.911 C50.239,20.858 49.28,20.831 48.186,20.831 C47.893,20.831 47.307,20.831 46.667,20.858 C46.053,20.858 45.361,20.911 44.827,20.911 C44.481,20.911 44.294,20.831 44.294,20.645 C44.294,20.512 44.402,20.432 44.72,20.432 C45.12,20.432 45.441,20.378 45.68,20.324 C46.214,20.219 46.347,19.632 46.454,18.858 C46.587,17.739 46.587,15.634 46.587,13.182 L46.587,8.49 C46.587,4.438 46.587,3.691 46.533,2.838 C46.481,1.933 46.267,1.505 45.388,1.319 C45.174,1.267 44.855,1.239 44.508,1.239 C44.215,1.239 44.054,1.186 44.054,0.998 C44.054,0.813 44.241,0.759 44.641,0.758 C45.894,0.758 47.573,0.839 48.293,0.839 C48.933,0.839 50.879,0.758 51.918,0.759 C52.291,0.759 52.478,0.813 52.478,0.998 C52.478,1.186 52.318,1.239 51.998,1.239 C51.705,1.239 51.278,1.267 50.958,1.319 C50.239,1.453 50.026,1.905 49.972,2.838 C49.919,3.691 49.919,4.438 49.919,8.49 L49.919,13.182" id="Fill-5"></path>
                <path d="M65.379,8.49 C65.379,4.437 65.379,3.692 65.326,2.839 C65.272,1.932 65.059,1.505 64.18,1.32 C63.966,1.266 63.514,1.239 63.14,1.239 C62.847,1.239 62.688,1.186 62.688,0.999 C62.688,0.813 62.874,0.76 63.274,0.76 C63.993,0.76 64.767,0.786 65.433,0.786 C66.126,0.813 66.739,0.839 67.112,0.839 C67.964,0.839 73.27,0.839 73.776,0.813 C74.283,0.76 74.709,0.705 74.922,0.652 C75.055,0.626 75.216,0.546 75.349,0.546 C75.481,0.546 75.509,0.652 75.509,0.786 C75.509,0.973 75.375,1.292 75.296,2.518 C75.268,2.786 75.216,3.958 75.163,4.278 C75.135,4.411 75.082,4.571 74.895,4.571 C74.709,4.571 74.656,4.437 74.656,4.198 C74.656,4.011 74.628,3.558 74.496,3.239 C74.309,2.758 74.042,2.439 72.709,2.279 C72.256,2.226 69.458,2.173 68.925,2.173 C68.791,2.173 68.738,2.252 68.738,2.439 L68.738,9.182 C68.738,9.369 68.765,9.477 68.925,9.477 C69.511,9.477 72.577,9.477 73.189,9.422 C73.83,9.369 74.229,9.289 74.469,9.022 C74.656,8.81 74.763,8.676 74.895,8.676 C75.002,8.676 75.082,8.729 75.082,8.891 C75.082,9.05 74.976,9.477 74.869,10.835 C74.843,11.369 74.763,12.436 74.763,12.621 C74.763,12.835 74.763,13.127 74.522,13.127 C74.336,13.127 74.283,13.021 74.283,12.888 C74.256,12.621 74.256,12.275 74.176,11.928 C74.042,11.396 73.669,10.995 72.683,10.888 C72.177,10.835 69.538,10.81 68.898,10.81 C68.765,10.81 68.738,10.916 68.738,11.075 L68.738,13.181 C68.738,14.087 68.711,16.539 68.738,17.313 C68.791,19.152 69.218,19.552 71.936,19.552 C72.63,19.552 73.749,19.552 74.443,19.231 C75.135,18.912 75.455,18.353 75.642,17.259 C75.696,16.965 75.748,16.859 75.935,16.859 C76.148,16.859 76.148,17.073 76.148,17.339 C76.148,17.952 75.935,19.766 75.802,20.297 C75.616,20.991 75.375,20.991 74.363,20.991 C72.364,20.991 70.897,20.938 69.75,20.912 C68.604,20.858 67.779,20.831 66.979,20.831 C66.686,20.831 66.1,20.831 65.459,20.858 C64.846,20.858 64.153,20.912 63.62,20.912 C63.274,20.912 63.086,20.831 63.086,20.645 C63.086,20.512 63.194,20.431 63.514,20.431 C63.914,20.431 64.233,20.378 64.473,20.325 C65.006,20.218 65.14,19.631 65.246,18.859 C65.379,17.739 65.379,15.633 65.379,13.181 L65.379,8.49" id="Fill-6"></path>
                <path d="M91.396,12.621 C91.529,12.621 91.555,12.542 91.529,12.461 L89.13,5.878 C89.103,5.771 89.076,5.638 88.996,5.638 C88.917,5.638 88.863,5.771 88.837,5.878 L86.384,12.435 C86.358,12.542 86.384,12.621 86.491,12.621 L91.396,12.621 L91.396,12.621 Z M85.958,13.954 C85.825,13.954 85.771,14.008 85.718,14.167 L84.279,17.979 C84.012,18.646 83.879,19.285 83.879,19.605 C83.879,20.085 84.119,20.431 84.945,20.431 L85.345,20.431 C85.664,20.431 85.744,20.484 85.744,20.644 C85.744,20.858 85.585,20.912 85.292,20.912 C84.439,20.912 83.292,20.831 82.466,20.831 C82.173,20.831 80.706,20.912 79.32,20.912 C78.974,20.912 78.813,20.858 78.813,20.644 C78.813,20.484 78.921,20.431 79.134,20.431 C79.374,20.431 79.746,20.405 79.96,20.378 C81.186,20.219 81.693,19.312 82.226,17.979 L88.917,1.239 C89.237,0.467 89.397,0.173 89.663,0.173 C89.903,0.173 90.063,0.414 90.329,1.026 C90.969,2.492 95.234,13.368 96.94,17.419 C97.952,19.818 98.726,20.19 99.285,20.325 C99.686,20.405 100.086,20.431 100.406,20.431 C100.619,20.431 100.752,20.459 100.752,20.644 C100.752,20.858 100.512,20.912 99.527,20.912 C98.566,20.912 96.62,20.912 94.488,20.858 C94.008,20.831 93.688,20.831 93.688,20.644 C93.688,20.484 93.795,20.431 94.061,20.405 C94.248,20.351 94.435,20.111 94.301,19.791 L92.169,14.14 C92.115,14.008 92.035,13.954 91.902,13.954 L85.958,13.954 L85.958,13.954 Z" id="Fill-7"></path>
                <path d="M108.335,11.422 C108.335,14.248 108.362,16.299 108.389,16.806 C108.415,17.472 108.469,18.539 108.682,18.831 C109.028,19.338 110.068,19.899 112.173,19.899 C114.892,19.899 116.705,19.365 118.304,17.98 C120.011,16.512 120.544,14.087 120.544,11.342 C120.544,7.956 119.131,5.771 117.985,4.678 C115.533,2.332 112.493,2.012 110.415,2.012 C109.882,2.012 108.895,2.092 108.682,2.199 C108.442,2.305 108.362,2.439 108.362,2.732 C108.335,3.639 108.335,5.957 108.335,8.063 L108.335,11.422 L108.335,11.422 Z M105.003,8.49 C105.003,4.437 105.003,3.692 104.95,2.839 C104.896,1.932 104.684,1.505 103.804,1.32 C103.59,1.266 103.137,1.239 102.764,1.239 C102.471,1.239 102.311,1.186 102.311,0.999 C102.311,0.813 102.497,0.76 102.897,0.759 C104.31,0.759 105.99,0.839 106.736,0.839 C107.562,0.839 109.241,0.759 110.841,0.76 C114.173,0.76 118.624,0.76 121.53,3.798 C122.863,5.184 124.116,7.397 124.116,10.569 C124.116,13.927 122.703,16.486 121.21,18.006 C119.984,19.259 117.212,21.151 112.281,21.151 C111.321,21.151 110.228,21.071 109.215,20.991 C108.202,20.912 107.269,20.831 106.603,20.831 C106.309,20.831 105.723,20.831 105.083,20.858 C104.47,20.858 103.777,20.912 103.244,20.912 C102.897,20.912 102.711,20.831 102.711,20.645 C102.711,20.512 102.818,20.431 103.137,20.431 C103.537,20.431 103.857,20.378 104.097,20.325 C104.63,20.218 104.763,19.631 104.87,18.859 C105.003,17.739 105.003,15.633 105.003,13.181 L105.003,8.49 L105.003,8.49 Z" id="Fill-8"></path>
                <path d="M132.353,8.49 C132.353,4.437 132.353,3.692 132.299,2.839 C132.246,1.932 131.979,1.479 131.393,1.346 C131.101,1.266 130.752,1.239 130.434,1.239 C130.167,1.239 130.006,1.186 130.006,0.973 C130.006,0.813 130.221,0.76 130.647,0.759 C131.661,0.759 133.338,0.839 134.111,0.839 C134.778,0.839 136.352,0.759 137.364,0.76 C137.71,0.76 137.923,0.813 137.923,0.973 C137.923,1.186 137.764,1.239 137.498,1.239 C137.23,1.239 137.018,1.266 136.697,1.32 C135.978,1.452 135.765,1.905 135.711,2.839 C135.658,3.692 135.658,4.437 135.658,8.49 L135.658,13.181 C135.658,15.768 135.658,17.872 135.765,19.019 C135.845,19.738 136.031,20.218 136.831,20.325 C137.204,20.378 137.791,20.431 138.19,20.431 C138.483,20.431 138.617,20.512 138.617,20.645 C138.617,20.831 138.403,20.912 138.11,20.912 C136.352,20.912 134.671,20.831 133.952,20.831 C133.338,20.831 131.661,20.912 130.592,20.912 C130.247,20.912 130.06,20.831 130.06,20.645 C130.06,20.512 130.167,20.431 130.486,20.431 C130.887,20.431 131.206,20.378 131.446,20.325 C131.979,20.218 132.141,19.766 132.22,18.992 C132.353,17.872 132.353,15.768 132.353,13.181 L132.353,8.49" id="Fill-9"></path>
                <path d="M148.559,17.286 C148.612,19.365 148.959,20.059 149.492,20.244 C149.945,20.405 150.452,20.432 150.878,20.432 C151.171,20.432 151.331,20.484 151.331,20.645 C151.331,20.858 151.091,20.911 150.718,20.911 C148.985,20.911 147.919,20.831 147.412,20.831 C147.173,20.831 145.92,20.911 144.534,20.911 C144.188,20.911 143.947,20.884 143.947,20.645 C143.947,20.484 144.108,20.432 144.374,20.432 C144.721,20.432 145.2,20.405 145.574,20.297 C146.266,20.084 146.373,19.313 146.399,16.993 L146.64,1.213 C146.64,0.679 146.72,0.307 146.986,0.307 C147.279,0.307 147.52,0.652 147.973,1.132 C148.292,1.479 152.344,5.824 156.236,9.688 C158.049,11.501 161.647,15.34 162.1,15.768 L162.234,15.768 L161.967,3.798 C161.94,2.173 161.701,1.665 161.06,1.399 C160.661,1.239 160.021,1.239 159.648,1.239 C159.328,1.239 159.221,1.158 159.221,0.999 C159.221,0.786 159.515,0.76 159.914,0.759 C161.301,0.759 162.58,0.839 163.14,0.839 C163.433,0.839 164.446,0.759 165.752,0.76 C166.099,0.76 166.365,0.786 166.365,0.999 C166.365,1.158 166.205,1.239 165.885,1.239 C165.619,1.239 165.405,1.239 165.086,1.319 C164.339,1.532 164.126,2.092 164.1,3.584 L163.806,20.405 C163.806,20.991 163.7,21.231 163.459,21.231 C163.167,21.231 162.847,20.938 162.553,20.645 C160.874,19.046 157.462,15.553 154.69,12.808 C151.784,9.93 148.825,6.597 148.345,6.09 L148.266,6.09 L148.559,17.286" id="Fill-10"></path>
                <path d="M189.676,19.125 C189.676,19.844 189.649,19.898 189.329,20.085 C187.597,20.991 184.984,21.284 182.906,21.284 C176.375,21.284 170.59,18.193 170.59,10.835 C170.59,6.571 172.802,3.584 175.228,2.118 C177.787,0.573 180.16,0.386 182.399,0.386 C184.238,0.386 186.584,0.706 187.117,0.813 C187.677,0.92 188.61,1.079 189.223,1.105 C189.543,1.133 189.596,1.239 189.596,1.426 C189.596,1.72 189.409,2.465 189.409,5.797 C189.409,6.224 189.329,6.357 189.116,6.357 C188.929,6.357 188.876,6.224 188.85,6.011 C188.77,5.397 188.637,4.544 187.943,3.799 C187.143,2.945 185.011,1.72 181.999,1.72 C180.533,1.72 178.587,1.826 176.721,3.371 C175.228,4.624 174.268,6.624 174.268,9.903 C174.268,15.633 177.921,19.925 183.545,19.925 C184.238,19.925 185.171,19.925 185.811,19.631 C186.211,19.446 186.317,19.099 186.317,18.646 L186.317,16.14 C186.317,14.807 186.317,13.795 186.291,12.995 C186.264,12.088 186.024,11.661 185.144,11.475 C184.931,11.422 184.478,11.395 184.105,11.395 C183.865,11.395 183.705,11.342 183.705,11.182 C183.705,10.969 183.892,10.916 184.265,10.916 C185.651,10.916 187.33,10.995 188.13,10.995 C188.956,10.995 190.369,10.916 191.249,10.916 C191.595,10.916 191.782,10.969 191.782,11.182 C191.782,11.342 191.622,11.395 191.435,11.395 C191.222,11.395 191.036,11.422 190.715,11.475 C189.996,11.607 189.729,12.061 189.703,12.995 C189.676,13.795 189.676,14.861 189.676,16.193 L189.676,19.125" id="Fill-11"></path>
                <path d="M213.585,10.595 C213.585,10.888 213.639,10.995 213.825,11.075 C214.385,11.262 215.185,11.342 215.851,11.342 C216.917,11.342 217.264,11.235 217.744,10.888 C218.543,10.302 219.317,9.076 219.317,6.89 C219.317,3.105 216.812,2.012 215.237,2.012 C214.572,2.012 214.091,2.039 213.825,2.118 C213.639,2.173 213.585,2.279 213.585,2.492 L213.585,10.595 L213.585,10.595 Z M210.441,8.49 C210.441,4.437 210.441,3.692 210.387,2.839 C210.334,1.932 210.121,1.505 209.24,1.32 C209.028,1.266 208.574,1.239 208.202,1.239 C207.908,1.239 207.748,1.186 207.748,0.999 C207.748,0.813 207.934,0.76 208.334,0.759 C209.747,0.759 211.427,0.839 211.986,0.839 C212.892,0.839 214.919,0.759 215.745,0.76 C217.423,0.76 219.211,0.92 220.649,1.905 C221.396,2.412 222.462,3.771 222.462,5.558 C222.462,7.53 221.636,9.343 218.943,11.529 C221.316,14.514 223.156,16.886 224.729,18.539 C226.22,20.085 227.313,20.271 227.713,20.351 C228.007,20.405 228.246,20.431 228.46,20.431 C228.673,20.431 228.779,20.512 228.779,20.644 C228.779,20.858 228.595,20.912 228.273,20.912 L225.741,20.912 C224.248,20.912 223.581,20.778 222.888,20.405 C221.743,19.791 220.73,18.539 219.236,16.486 C218.17,15.02 216.945,13.208 216.598,12.808 C216.465,12.648 216.304,12.621 216.117,12.621 L213.798,12.567 C213.667,12.567 213.585,12.621 213.585,12.782 L213.585,13.154 C213.585,15.633 213.585,17.739 213.719,18.859 C213.798,19.631 213.96,20.218 214.759,20.325 C215.159,20.378 215.745,20.431 216.065,20.431 C216.279,20.431 216.385,20.512 216.385,20.644 C216.385,20.831 216.198,20.912 215.853,20.912 C214.304,20.912 212.333,20.831 211.934,20.831 C211.427,20.831 209.747,20.912 208.681,20.912 C208.334,20.912 208.147,20.831 208.147,20.644 C208.147,20.512 208.255,20.431 208.574,20.431 C208.975,20.431 209.295,20.378 209.534,20.325 C210.067,20.218 210.201,19.631 210.307,18.859 C210.441,17.739 210.441,15.633 210.441,13.181 L210.441,8.49 L210.441,8.49 Z" id="Fill-12"></path>
                <path d="M233.23,8.49 C233.23,4.437 233.23,3.692 233.178,2.839 C233.124,1.932 232.91,1.505 232.032,1.32 C231.817,1.266 231.364,1.239 230.99,1.239 C230.698,1.239 230.539,1.186 230.539,0.999 C230.539,0.813 230.727,0.76 231.127,0.76 C231.846,0.76 232.618,0.786 233.283,0.786 C233.978,0.813 234.591,0.839 234.965,0.839 C235.816,0.839 241.122,0.839 241.628,0.813 C242.135,0.76 242.561,0.705 242.773,0.652 C242.905,0.626 243.066,0.546 243.201,0.546 C243.334,0.546 243.36,0.652 243.36,0.786 C243.36,0.973 243.227,1.292 243.148,2.518 C243.12,2.786 243.066,3.958 243.014,4.278 C242.986,4.411 242.934,4.571 242.749,4.571 C242.561,4.571 242.506,4.437 242.506,4.198 C242.506,4.011 242.479,3.558 242.349,3.239 C242.161,2.758 241.895,2.439 240.561,2.279 C240.107,2.226 237.31,2.173 236.777,2.173 C236.643,2.173 236.591,2.252 236.591,2.439 L236.591,9.182 C236.591,9.369 236.615,9.477 236.777,9.477 C237.362,9.477 240.43,9.477 241.042,9.422 C241.68,9.369 242.08,9.289 242.32,9.022 C242.506,8.81 242.613,8.676 242.749,8.676 C242.854,8.676 242.934,8.729 242.934,8.891 C242.934,9.05 242.827,9.477 242.721,10.835 C242.694,11.369 242.613,12.436 242.613,12.621 C242.613,12.835 242.613,13.127 242.374,13.127 C242.188,13.127 242.135,13.021 242.135,12.888 C242.107,12.621 242.107,12.275 242.026,11.928 C241.895,11.396 241.521,10.995 240.535,10.888 C240.028,10.835 237.391,10.81 236.749,10.81 C236.615,10.81 236.591,10.916 236.591,11.075 L236.591,13.181 C236.591,14.087 236.563,16.539 236.591,17.313 C236.643,19.152 237.068,19.552 239.788,19.552 C240.481,19.552 241.601,19.552 242.295,19.231 C242.986,18.912 243.307,18.353 243.493,17.259 C243.548,16.965 243.6,16.859 243.787,16.859 C244,16.859 244,17.073 244,17.339 C244,17.952 243.787,19.766 243.654,20.297 C243.467,20.991 243.227,20.991 242.214,20.991 C240.216,20.991 238.75,20.938 237.602,20.912 C236.456,20.858 235.63,20.831 234.83,20.831 C234.537,20.831 233.952,20.831 233.311,20.858 C232.697,20.858 232.005,20.912 231.472,20.912 C231.127,20.912 230.938,20.831 230.938,20.645 C230.938,20.512 231.046,20.431 231.364,20.431 C231.765,20.431 232.085,20.378 232.324,20.325 C232.857,20.218 232.99,19.631 233.098,18.859 C233.23,17.739 233.23,15.633 233.23,13.181 L233.23,8.49" id="Fill-13"></path>
                <path d="M259.247,12.621 C259.381,12.621 259.408,12.542 259.381,12.461 L256.982,5.878 C256.955,5.771 256.928,5.638 256.849,5.638 C256.769,5.638 256.715,5.771 256.688,5.878 L254.235,12.435 C254.21,12.542 254.235,12.621 254.342,12.621 L259.247,12.621 L259.247,12.621 Z M253.81,13.954 C253.676,13.954 253.623,14.008 253.569,14.167 L252.131,17.979 C251.863,18.646 251.731,19.285 251.731,19.605 C251.731,20.085 251.97,20.431 252.797,20.431 L253.196,20.431 C253.517,20.431 253.596,20.484 253.596,20.644 C253.596,20.858 253.437,20.912 253.145,20.912 C252.291,20.912 251.144,20.831 250.318,20.831 C250.024,20.831 248.559,20.912 247.172,20.912 C246.824,20.912 246.666,20.858 246.666,20.644 C246.666,20.484 246.772,20.431 246.986,20.431 C247.225,20.431 247.599,20.405 247.812,20.378 C249.037,20.219 249.544,19.312 250.077,17.979 L256.769,1.239 C257.09,0.467 257.249,0.173 257.515,0.173 C257.755,0.173 257.915,0.414 258.181,1.026 C258.82,2.492 263.085,13.368 264.792,17.419 C265.805,19.818 266.578,20.19 267.138,20.325 C267.537,20.405 267.938,20.431 268.256,20.431 C268.47,20.431 268.604,20.459 268.604,20.644 C268.604,20.858 268.363,20.912 267.378,20.912 C266.417,20.912 264.472,20.912 262.341,20.858 C261.859,20.831 261.54,20.831 261.54,20.644 C261.54,20.484 261.646,20.431 261.912,20.405 C262.1,20.351 262.286,20.111 262.152,19.791 L260.021,14.14 C259.968,14.008 259.887,13.954 259.753,13.954 L253.81,13.954 L253.81,13.954 Z" id="Fill-14"></path>
                <path d="M277.399,13.182 C277.399,16.593 277.399,18.432 277.958,18.911 C278.413,19.312 279.105,19.498 281.184,19.498 C282.597,19.498 283.638,19.472 284.303,18.753 C284.622,18.405 284.942,17.658 284.996,17.152 C285.021,16.912 285.077,16.753 285.29,16.753 C285.477,16.753 285.504,16.887 285.504,17.205 C285.504,17.5 285.315,19.498 285.104,20.271 C284.942,20.858 284.809,20.99 283.424,20.99 C281.505,20.99 280.119,20.937 278.919,20.911 C277.719,20.858 276.76,20.831 275.668,20.831 C275.374,20.831 274.787,20.831 274.147,20.858 C273.534,20.858 272.842,20.911 272.307,20.911 C271.962,20.911 271.775,20.831 271.775,20.645 C271.775,20.512 271.883,20.432 272.201,20.432 C272.601,20.432 272.921,20.378 273.162,20.324 C273.694,20.219 273.828,19.632 273.934,18.858 C274.067,17.739 274.067,15.634 274.067,13.182 L274.067,8.49 C274.067,4.438 274.067,3.691 274.014,2.838 C273.961,1.933 273.748,1.505 272.868,1.319 C272.654,1.267 272.337,1.239 271.988,1.239 C271.693,1.239 271.536,1.186 271.536,0.998 C271.536,0.813 271.723,0.759 272.123,0.758 C273.375,0.758 275.055,0.839 275.773,0.839 C276.413,0.839 278.357,0.758 279.399,0.759 C279.771,0.759 279.959,0.813 279.959,0.998 C279.959,1.186 279.8,1.239 279.478,1.239 C279.185,1.239 278.758,1.267 278.439,1.319 C277.719,1.453 277.506,1.905 277.452,2.838 C277.399,3.691 277.399,4.438 277.399,8.49 L277.399,13.182" id="Fill-15"></path>
                <path d="M303.523,8.49 C303.523,4.437 303.523,3.692 303.47,2.839 C303.414,1.932 303.201,1.505 302.324,1.32 C302.11,1.266 301.656,1.239 301.282,1.239 C300.988,1.239 300.83,1.186 300.83,0.999 C300.83,0.813 301.018,0.76 301.417,0.76 C302.137,0.76 302.908,0.786 303.575,0.786 C304.27,0.813 304.881,0.839 305.255,0.839 C306.108,0.839 311.413,0.839 311.919,0.813 C312.426,0.76 312.853,0.705 313.065,0.652 C313.197,0.626 313.358,0.546 313.491,0.546 C313.627,0.546 313.652,0.652 313.652,0.786 C313.652,0.973 313.518,1.292 313.439,2.518 C313.41,2.786 313.358,3.958 313.305,4.278 C313.279,4.411 313.228,4.571 313.039,4.571 C312.853,4.571 312.797,4.437 312.797,4.198 C312.797,4.011 312.772,3.558 312.64,3.239 C312.452,2.758 312.185,2.439 310.854,2.279 C310.401,2.226 307.602,2.173 307.069,2.173 C306.934,2.173 306.881,2.252 306.881,2.439 L306.881,9.182 C306.881,9.369 306.907,9.477 307.069,9.477 C307.652,9.477 310.72,9.477 311.332,9.422 C311.972,9.369 312.373,9.289 312.613,9.022 C312.797,8.81 312.904,8.676 313.039,8.676 C313.146,8.676 313.228,8.729 313.228,8.891 C313.228,9.05 313.12,9.477 313.011,10.835 C312.984,11.369 312.904,12.436 312.904,12.621 C312.904,12.835 312.904,13.127 312.666,13.127 C312.479,13.127 312.426,13.021 312.426,12.888 C312.397,12.621 312.397,12.275 312.32,11.928 C312.185,11.396 311.814,10.995 310.826,10.888 C310.32,10.835 307.682,10.81 307.04,10.81 C306.907,10.81 306.881,10.916 306.881,11.075 L306.881,13.181 C306.881,14.087 306.855,16.539 306.881,17.313 C306.934,19.152 307.361,19.552 310.078,19.552 C310.772,19.552 311.892,19.552 312.584,19.231 C313.279,18.912 313.598,18.353 313.785,17.259 C313.838,16.965 313.892,16.859 314.079,16.859 C314.291,16.859 314.291,17.073 314.291,17.339 C314.291,17.952 314.079,19.766 313.945,20.297 C313.758,20.991 313.518,20.991 312.504,20.991 C310.506,20.991 309.041,20.938 307.895,20.912 C306.746,20.858 305.92,20.831 305.12,20.831 C304.827,20.831 304.242,20.831 303.602,20.858 C302.988,20.858 302.295,20.912 301.765,20.912 C301.417,20.912 301.23,20.831 301.23,20.645 C301.23,20.512 301.336,20.431 301.656,20.431 C302.057,20.431 302.377,20.378 302.617,20.325 C303.149,20.218 303.283,19.631 303.389,18.859 C303.523,17.739 303.523,15.633 303.523,13.181 L303.523,8.49" id="Fill-16"></path>
                <path d="M321.567,20.591 C321.142,20.405 321.062,20.271 321.062,19.685 C321.062,18.219 321.168,16.62 321.193,16.193 C321.223,15.793 321.302,15.499 321.514,15.499 C321.756,15.499 321.78,15.74 321.78,15.953 C321.78,16.299 321.888,16.859 322.02,17.313 C322.606,19.285 324.182,20.005 325.833,20.005 C328.231,20.005 329.405,18.378 329.405,16.966 C329.405,15.66 329.006,14.433 326.793,12.701 L325.566,11.742 C322.635,9.45 321.622,7.584 321.622,5.424 C321.622,2.492 324.074,0.386 327.779,0.386 C329.512,0.386 330.632,0.652 331.324,0.839 C331.563,0.892 331.696,0.973 331.696,1.159 C331.696,1.505 331.59,2.279 331.59,4.358 C331.59,4.944 331.51,5.158 331.298,5.158 C331.109,5.158 331.031,4.997 331.031,4.678 C331.031,4.437 330.897,3.611 330.339,2.918 C329.938,2.412 329.165,1.612 327.432,1.612 C325.461,1.612 324.261,2.758 324.261,4.358 C324.261,5.584 324.874,6.517 327.087,8.197 L327.832,8.756 C331.058,11.182 332.204,13.021 332.204,15.553 C332.204,17.099 331.617,18.939 329.698,20.191 C328.365,21.044 326.874,21.284 325.461,21.284 C323.913,21.284 322.715,21.097 321.567,20.591" id="Fill-17"></path>
                <path d="M4.195,46.953 C1.583,44.66 0.89,41.677 0.89,39.093 C0.89,37.279 1.449,34.135 4.009,31.787 C5.928,30.028 8.46,28.962 12.432,28.962 C14.084,28.962 15.071,29.067 16.296,29.229 C17.31,29.361 18.163,29.603 18.961,29.681 C19.254,29.707 19.363,29.842 19.363,30.001 C19.363,30.216 19.283,30.534 19.228,31.468 C19.176,32.348 19.203,33.813 19.148,34.348 C19.123,34.744 19.068,34.961 18.83,34.961 C18.616,34.961 18.562,34.744 18.562,34.371 C18.536,33.548 18.189,32.612 17.522,31.922 C16.644,30.986 14.564,30.268 12.11,30.268 C9.792,30.268 8.273,30.854 7.101,31.922 C5.155,33.706 4.648,36.238 4.648,38.824 C4.648,45.17 9.473,48.314 13.044,48.314 C15.417,48.314 16.856,48.047 17.922,46.82 C18.376,46.314 18.723,45.541 18.83,45.063 C18.91,44.637 18.961,44.527 19.176,44.527 C19.363,44.527 19.415,44.715 19.415,44.928 C19.415,45.25 19.096,47.568 18.83,48.476 C18.696,48.928 18.588,49.06 18.137,49.247 C17.07,49.673 15.044,49.859 13.337,49.859 C9.685,49.859 6.621,49.06 4.195,46.953" id="Fill-18"></path>
                <path d="M42.246,39.918 C42.246,33.947 38.808,30.242 34.436,30.242 C31.371,30.242 27.879,31.948 27.879,38.586 C27.879,44.128 30.944,48.527 36.062,48.527 C37.928,48.527 42.246,47.621 42.246,39.918 M24.2,39.412 C24.2,34.854 27.212,28.961 35.209,28.961 C41.847,28.961 45.979,32.828 45.979,38.931 C45.979,45.034 41.713,49.86 34.942,49.86 C27.292,49.86 24.2,44.128 24.2,39.412" id="Fill-19"></path>
                <path d="M54.654,29.441 C54.734,28.988 54.895,28.749 55.107,28.749 C55.321,28.749 55.48,28.882 55.827,29.574 L63.104,44.608 L70.355,29.39 C70.567,28.962 70.701,28.749 70.941,28.749 C71.182,28.749 71.341,29.015 71.421,29.574 L73.846,46.047 C74.086,47.728 74.354,48.502 75.152,48.74 C75.926,48.981 76.46,49.008 76.805,49.008 C77.045,49.008 77.231,49.034 77.231,49.194 C77.231,49.408 76.913,49.487 76.54,49.487 C75.873,49.487 72.194,49.408 71.128,49.325 C70.514,49.272 70.355,49.194 70.355,49.034 C70.355,48.901 70.461,48.82 70.648,48.74 C70.809,48.688 70.887,48.341 70.781,47.595 L69.183,35.867 L69.075,35.867 L63.264,47.967 C62.651,49.221 62.519,49.46 62.278,49.46 C62.039,49.46 61.771,48.928 61.345,48.128 C60.706,46.901 58.6,42.824 58.279,42.077 C58.04,41.516 56.44,38.158 55.507,36.16 L55.401,36.16 L54.016,46.769 C53.961,47.247 53.936,47.595 53.936,48.02 C53.936,48.527 54.281,48.767 54.734,48.873 C55.214,48.981 55.587,49.008 55.854,49.008 C56.067,49.008 56.254,49.06 56.254,49.194 C56.254,49.434 56.013,49.487 55.614,49.487 C54.495,49.487 53.294,49.408 52.815,49.408 C52.309,49.408 51.029,49.487 50.176,49.487 C49.909,49.487 49.696,49.434 49.696,49.194 C49.696,49.06 49.856,49.008 50.123,49.008 C50.336,49.008 50.523,49.008 50.922,48.928 C51.669,48.767 51.882,47.728 52.016,46.82 L54.654,29.441" id="Fill-20"></path>
                <path d="M84.669,37.066 C84.669,33.013 84.669,32.268 84.616,31.412 C84.562,30.509 84.349,30.08 83.47,29.894 C83.256,29.842 82.803,29.815 82.43,29.815 C82.137,29.815 81.977,29.762 81.977,29.574 C81.977,29.39 82.163,29.335 82.563,29.332 C83.976,29.332 85.655,29.415 86.402,29.415 C87.495,29.415 89.04,29.332 90.267,29.335 C93.599,29.335 94.798,30.454 95.225,30.854 C95.812,31.412 96.558,32.612 96.558,34.025 C96.558,37.81 93.785,40.477 90,40.477 C89.867,40.477 89.573,40.477 89.44,40.45 C89.307,40.425 89.12,40.398 89.12,40.211 C89.12,39.996 89.307,39.918 89.867,39.918 C91.36,39.918 93.439,38.237 93.439,35.519 C93.439,34.641 93.359,32.852 91.866,31.52 C90.906,30.642 89.814,30.48 89.201,30.48 C88.801,30.48 88.401,30.509 88.161,30.588 C88.028,30.642 87.948,30.803 87.948,31.094 L87.948,41.757 C87.948,44.208 87.948,46.314 88.081,47.46 C88.161,48.207 88.321,48.795 89.12,48.901 C89.494,48.953 90.08,49.008 90.48,49.008 C90.773,49.008 90.906,49.089 90.906,49.221 C90.906,49.407 90.693,49.488 90.4,49.488 C88.641,49.488 86.962,49.407 86.268,49.407 C85.655,49.407 83.976,49.488 82.909,49.488 C82.563,49.488 82.376,49.407 82.376,49.221 C82.376,49.089 82.484,49.008 82.803,49.008 C83.203,49.008 83.523,48.953 83.763,48.901 C84.296,48.795 84.429,48.207 84.536,47.435 C84.669,46.314 84.669,44.208 84.669,41.757 L84.669,37.066" id="Fill-21"></path>
                <path d="M110.5,41.196 C110.633,41.196 110.659,41.118 110.633,41.035 L108.233,34.454 C108.207,34.347 108.18,34.213 108.101,34.213 C108.021,34.213 107.967,34.347 107.94,34.454 L105.488,41.011 C105.461,41.118 105.488,41.196 105.594,41.196 L110.5,41.196 L110.5,41.196 Z M105.061,42.531 C104.928,42.531 104.875,42.583 104.822,42.744 L103.383,46.554 C103.115,47.221 102.982,47.86 102.982,48.18 C102.982,48.66 103.222,49.008 104.048,49.008 L104.448,49.008 C104.769,49.008 104.848,49.06 104.848,49.221 C104.848,49.434 104.689,49.488 104.395,49.488 C103.542,49.488 102.397,49.408 101.569,49.408 C101.276,49.408 99.81,49.488 98.424,49.488 C98.078,49.488 97.918,49.434 97.918,49.221 C97.918,49.06 98.025,49.008 98.237,49.008 C98.478,49.008 98.85,48.981 99.065,48.953 C100.29,48.795 100.796,47.888 101.33,46.554 L108.021,29.816 C108.34,29.042 108.501,28.748 108.767,28.748 C109.007,28.748 109.166,28.989 109.433,29.603 C110.073,31.068 114.338,41.944 116.043,45.993 C117.056,48.395 117.83,48.766 118.389,48.901 C118.789,48.981 119.189,49.008 119.51,49.008 C119.722,49.008 119.855,49.034 119.855,49.221 C119.855,49.434 119.615,49.488 118.63,49.488 C117.671,49.488 115.725,49.488 113.591,49.434 C113.111,49.408 112.791,49.408 112.791,49.221 C112.791,49.06 112.899,49.008 113.165,48.981 C113.352,48.927 113.538,48.688 113.406,48.366 L111.272,42.715 C111.219,42.583 111.139,42.531 111.006,42.531 L105.061,42.531 L105.061,42.531 Z" id="Fill-22"></path>
                <path d="M127.346,45.862 C127.398,47.94 127.746,48.634 128.278,48.82 C128.731,48.981 129.238,49.008 129.665,49.008 C129.958,49.008 130.118,49.06 130.118,49.221 C130.118,49.434 129.878,49.487 129.505,49.487 C127.772,49.487 126.707,49.407 126.201,49.407 C125.959,49.407 124.708,49.487 123.321,49.487 C122.975,49.487 122.735,49.46 122.735,49.221 C122.735,49.06 122.895,49.008 123.161,49.008 C123.507,49.008 123.986,48.981 124.359,48.873 C125.054,48.659 125.161,47.889 125.188,45.569 L125.426,29.787 C125.426,29.255 125.506,28.882 125.773,28.882 C126.067,28.882 126.307,29.229 126.759,29.707 C127.08,30.055 131.13,34.399 135.022,38.264 C136.835,40.076 140.435,43.915 140.887,44.344 L141.02,44.344 L140.753,32.374 C140.727,30.748 140.487,30.241 139.848,29.974 C139.448,29.815 138.808,29.815 138.435,29.815 C138.115,29.815 138.007,29.735 138.007,29.573 C138.007,29.361 138.301,29.336 138.702,29.333 C140.087,29.333 141.368,29.416 141.927,29.416 C142.22,29.416 143.233,29.333 144.539,29.336 C144.885,29.336 145.151,29.361 145.151,29.573 C145.151,29.735 144.992,29.815 144.671,29.815 C144.405,29.815 144.191,29.815 143.873,29.894 C143.125,30.108 142.915,30.668 142.887,32.16 L142.592,48.981 C142.592,49.565 142.486,49.808 142.247,49.808 C141.955,49.808 141.633,49.512 141.339,49.221 C139.661,47.621 136.25,44.128 133.477,41.383 C130.57,38.506 127.612,35.174 127.133,34.665 L127.054,34.665 L127.346,45.862" id="Fill-23"></path>
                <path d="M154.294,37.066 C154.294,33.013 154.294,32.268 154.241,31.412 C154.188,30.509 153.921,30.055 153.334,29.923 C153.042,29.842 152.695,29.815 152.375,29.815 C152.109,29.815 151.949,29.762 151.949,29.549 C151.949,29.39 152.162,29.335 152.588,29.332 C153.601,29.332 155.28,29.415 156.054,29.415 C156.72,29.415 158.293,29.332 159.306,29.335 C159.652,29.335 159.865,29.39 159.865,29.549 C159.865,29.762 159.706,29.815 159.439,29.815 C159.173,29.815 158.959,29.842 158.639,29.894 C157.919,30.028 157.706,30.48 157.653,31.412 C157.599,32.268 157.599,33.013 157.599,37.066 L157.599,41.757 C157.599,44.344 157.599,46.447 157.706,47.595 C157.786,48.314 157.973,48.795 158.773,48.901 C159.146,48.953 159.732,49.008 160.132,49.008 C160.425,49.008 160.558,49.089 160.558,49.221 C160.558,49.407 160.345,49.488 160.052,49.488 C158.293,49.488 156.613,49.407 155.895,49.407 C155.28,49.407 153.601,49.488 152.535,49.488 C152.188,49.488 152.002,49.407 152.002,49.221 C152.002,49.089 152.109,49.008 152.428,49.008 C152.828,49.008 153.148,48.953 153.388,48.901 C153.921,48.795 154.081,48.341 154.161,47.568 C154.294,46.447 154.294,44.344 154.294,41.757 L154.294,37.066" id="Fill-24"></path>
                <path d="M169.542,37.066 C169.542,33.013 169.542,32.268 169.489,31.412 C169.436,30.509 169.223,30.08 168.343,29.894 C168.128,29.842 167.676,29.815 167.303,29.815 C167.01,29.815 166.849,29.762 166.849,29.574 C166.849,29.39 167.037,29.335 167.436,29.335 C168.155,29.335 168.929,29.361 169.595,29.361 C170.289,29.39 170.901,29.415 171.274,29.415 C172.128,29.415 177.432,29.415 177.938,29.39 C178.444,29.335 178.872,29.28 179.084,29.229 C179.219,29.202 179.377,29.121 179.513,29.121 C179.645,29.121 179.67,29.229 179.67,29.361 C179.67,29.549 179.538,29.867 179.458,31.094 C179.431,31.36 179.377,32.534 179.325,32.852 C179.3,32.986 179.245,33.146 179.058,33.146 C178.872,33.146 178.818,33.013 178.818,32.773 C178.818,32.586 178.792,32.135 178.658,31.815 C178.472,31.332 178.206,31.016 176.873,30.854 C176.419,30.803 173.621,30.748 173.087,30.748 C172.954,30.748 172.9,30.828 172.9,31.016 L172.9,37.758 C172.9,37.944 172.927,38.051 173.087,38.051 C173.674,38.051 176.739,38.051 177.351,37.998 C177.993,37.944 178.393,37.863 178.632,37.6 C178.818,37.386 178.925,37.251 179.058,37.251 C179.164,37.251 179.245,37.306 179.245,37.467 C179.245,37.625 179.139,38.051 179.032,39.411 C179.005,39.944 178.925,41.012 178.925,41.195 C178.925,41.408 178.925,41.702 178.686,41.702 C178.5,41.702 178.444,41.596 178.444,41.464 C178.418,41.195 178.418,40.851 178.338,40.505 C178.206,39.971 177.832,39.57 176.845,39.464 C176.338,39.411 173.701,39.386 173.061,39.386 C172.927,39.386 172.9,39.492 172.9,39.65 L172.9,41.757 C172.9,42.66 172.874,45.114 172.9,45.889 C172.954,47.728 173.379,48.127 176.099,48.127 C176.792,48.127 177.912,48.127 178.606,47.806 C179.3,47.488 179.618,46.928 179.806,45.834 C179.857,45.54 179.913,45.435 180.098,45.435 C180.313,45.435 180.313,45.649 180.313,45.914 C180.313,46.527 180.098,48.341 179.964,48.872 C179.776,49.566 179.538,49.566 178.524,49.566 C176.525,49.566 175.061,49.512 173.913,49.488 C172.767,49.434 171.942,49.407 171.142,49.407 C170.848,49.407 170.262,49.407 169.622,49.434 C169.01,49.434 168.315,49.488 167.783,49.488 C167.436,49.488 167.249,49.407 167.249,49.221 C167.249,49.089 167.356,49.008 167.676,49.008 C168.076,49.008 168.396,48.953 168.636,48.901 C169.167,48.795 169.304,48.207 169.41,47.435 C169.542,46.314 169.542,44.208 169.542,41.757 L169.542,37.066" id="Fill-25"></path>
                <path d="M188.121,49.166 C187.695,48.981 187.615,48.848 187.615,48.26 C187.615,46.795 187.722,45.195 187.747,44.768 C187.775,44.367 187.854,44.076 188.068,44.076 C188.308,44.076 188.335,44.315 188.335,44.528 C188.335,44.875 188.441,45.435 188.574,45.889 C189.16,47.86 190.734,48.581 192.386,48.581 C194.785,48.581 195.958,46.953 195.958,45.541 C195.958,44.237 195.559,43.008 193.347,41.276 L192.12,40.318 C189.188,38.025 188.174,36.16 188.174,33.999 C188.174,31.067 190.627,28.961 194.332,28.961 C196.066,28.961 197.185,29.229 197.877,29.415 C198.117,29.467 198.25,29.548 198.25,29.735 C198.25,30.08 198.143,30.854 198.143,32.935 C198.143,33.52 198.064,33.734 197.85,33.734 C197.664,33.734 197.586,33.573 197.586,33.254 C197.586,33.012 197.451,32.187 196.891,31.493 C196.491,30.987 195.718,30.187 193.986,30.187 C192.013,30.187 190.815,31.332 190.815,32.935 C190.815,34.16 191.428,35.092 193.64,36.773 L194.386,37.331 C197.611,39.757 198.756,41.597 198.756,44.128 C198.756,45.675 198.17,47.515 196.251,48.767 C194.918,49.62 193.426,49.859 192.013,49.859 C190.467,49.859 189.266,49.672 188.121,49.166" id="Fill-26"></path>
                <path d="M215.271,48.032 C219.509,48.032 224.067,40.557 224.067,36.598 C224.067,35.479 223.509,34.601 222.35,34.601 C218.991,34.601 213.672,41.556 213.672,45.794 C213.672,47.194 214.232,48.032 215.271,48.032 M233.785,38.076 C232.506,39.516 230.786,40.437 229.267,40.437 C227.788,40.437 226.667,39.677 226.108,38.759 L226.027,38.759 C224.907,42.796 219.951,48.513 214.992,48.513 C212.713,48.513 211.514,47.033 211.514,44.836 C211.514,41.235 217.111,34.121 222.709,34.121 C224.867,34.121 226.108,35.519 226.229,37.559 C226.309,38.799 227.426,40.037 229.227,40.037 C230.826,40.037 232.267,39.158 233.465,37.879 L233.785,38.076" id="Fill-27"></path>
                <path d="M232.476,34.92 L232.476,34.439 L235.555,34.439 C239.673,27.802 244.311,20.365 250.067,20.365 C251.75,20.365 252.947,21.084 252.947,22.563 C252.947,23.844 252.067,24.763 250.828,24.842 C251.026,24.123 251.188,23.484 251.188,22.604 C251.188,21.564 250.707,20.844 249.508,20.844 C245.511,20.844 241.231,28.921 237.834,34.439 L246.869,34.439 L246.869,34.92 L237.594,34.92 C227.356,52.392 222.121,59.631 213.083,59.631 C209.925,59.631 206.965,57.991 206.965,54.832 C206.965,52.751 208.165,51.074 211.244,51.074 L211.604,51.074 L211.604,51.391 C210.005,51.474 208.725,52.673 208.725,54.633 C208.725,57.39 210.323,59.15 213.285,59.15 C221.92,59.15 227.879,46.634 235.313,34.92 L232.476,34.92" id="Fill-28"></path>
                <path d="M261.349,30.828 L257.374,30.936 C255.829,30.987 255.191,31.121 254.79,31.708 C254.524,32.106 254.39,32.429 254.336,32.642 C254.284,32.852 254.203,32.958 254.042,32.958 C253.856,32.958 253.804,32.828 253.804,32.534 C253.804,32.106 254.311,29.681 254.362,29.468 C254.442,29.121 254.524,28.961 254.686,28.961 C254.897,28.961 255.162,29.229 255.829,29.28 C256.604,29.361 257.616,29.415 258.494,29.415 L269.051,29.415 C269.903,29.415 270.49,29.335 270.891,29.28 C271.291,29.202 271.502,29.148 271.609,29.148 C271.797,29.148 271.822,29.31 271.822,29.706 C271.822,30.268 271.745,32.106 271.745,32.8 C271.715,33.067 271.663,33.229 271.502,33.229 C271.291,33.229 271.238,33.094 271.209,32.693 L271.184,32.399 C271.128,31.708 270.409,30.961 268.038,30.908 L264.681,30.828 L264.681,41.757 C264.681,44.208 264.681,46.314 264.813,47.46 C264.893,48.207 265.051,48.794 265.852,48.901 C266.225,48.953 266.813,49.008 267.212,49.008 C267.507,49.008 267.638,49.089 267.638,49.221 C267.638,49.407 267.425,49.488 267.132,49.488 C265.371,49.488 263.693,49.407 262.945,49.407 C262.332,49.407 260.654,49.488 259.587,49.488 C259.242,49.488 259.055,49.407 259.055,49.221 C259.055,49.089 259.161,49.008 259.482,49.008 C259.882,49.008 260.2,48.953 260.443,48.901 C260.974,48.794 261.135,48.207 261.213,47.435 C261.349,46.314 261.349,44.208 261.349,41.757 L261.349,30.828" id="Fill-29"></path>
                <path d="M293.065,37.81 C293.147,37.81 293.227,37.758 293.227,37.624 L293.227,37.066 C293.227,33.013 293.227,32.268 293.172,31.412 C293.12,30.509 292.907,30.08 292.027,29.894 C291.813,29.842 291.362,29.815 290.988,29.815 C290.695,29.815 290.534,29.762 290.534,29.574 C290.534,29.39 290.722,29.335 291.095,29.332 C292.533,29.332 294.215,29.415 294.933,29.415 C295.573,29.415 297.252,29.332 298.292,29.335 C298.665,29.335 298.853,29.39 298.853,29.574 C298.853,29.762 298.69,29.815 298.372,29.815 C298.159,29.815 297.917,29.842 297.599,29.894 C296.88,30.028 296.665,30.48 296.613,31.412 C296.559,32.268 296.559,33.013 296.559,37.066 L296.559,41.757 C296.559,44.208 296.559,46.314 296.69,47.46 C296.771,48.207 296.934,48.794 297.732,48.901 C298.104,48.953 298.69,49.008 299.091,49.008 C299.384,49.008 299.518,49.089 299.518,49.221 C299.518,49.407 299.305,49.488 298.984,49.488 C297.252,49.488 295.573,49.407 294.827,49.407 C294.215,49.407 292.533,49.488 291.495,49.488 C291.121,49.488 290.935,49.407 290.935,49.221 C290.935,49.089 291.04,49.008 291.362,49.008 C291.76,49.008 292.082,48.953 292.32,48.901 C292.854,48.794 292.988,48.207 293.096,47.435 C293.227,46.314 293.227,44.208 293.227,41.757 L293.227,39.411 C293.227,39.306 293.147,39.25 293.065,39.25 L282.885,39.25 C282.806,39.25 282.724,39.276 282.724,39.411 L282.724,41.757 C282.724,44.208 282.724,46.314 282.857,47.46 C282.937,48.207 283.1,48.794 283.897,48.901 C284.271,48.953 284.856,49.008 285.257,49.008 C285.55,49.008 285.684,49.089 285.684,49.221 C285.684,49.407 285.471,49.488 285.149,49.488 C283.418,49.488 281.739,49.407 280.992,49.407 C280.38,49.407 278.699,49.488 277.634,49.488 C277.286,49.488 277.101,49.407 277.101,49.221 C277.101,49.089 277.206,49.008 277.528,49.008 C277.928,49.008 278.247,48.953 278.486,48.901 C279.02,48.794 279.153,48.207 279.261,47.435 C279.392,46.314 279.392,44.208 279.392,41.757 L279.392,37.066 C279.392,33.013 279.392,32.268 279.338,31.412 C279.286,30.509 279.073,30.08 278.193,29.894 C277.979,29.842 277.528,29.815 277.154,29.815 C276.859,29.815 276.699,29.762 276.699,29.574 C276.699,29.39 276.888,29.335 277.26,29.332 C278.699,29.332 280.38,29.415 281.099,29.415 C281.739,29.415 283.418,29.332 284.457,29.335 C284.831,29.335 285.019,29.39 285.019,29.574 C285.019,29.762 284.856,29.815 284.537,29.815 C284.324,29.815 284.083,29.842 283.765,29.894 C283.044,30.028 282.831,30.48 282.779,31.412 C282.724,32.268 282.724,33.013 282.724,37.066 L282.724,37.624 C282.724,37.758 282.806,37.81 282.885,37.81 L293.065,37.81" id="Fill-30"></path>
                <path d="M307.968,37.066 C307.968,33.013 307.968,32.268 307.913,31.412 C307.86,30.509 307.647,30.08 306.768,29.894 C306.555,29.842 306.103,29.815 305.729,29.815 C305.436,29.815 305.274,29.762 305.274,29.574 C305.274,29.39 305.463,29.335 305.861,29.335 C306.581,29.335 307.354,29.361 308.021,29.361 C308.713,29.39 309.325,29.415 309.699,29.415 C310.555,29.415 315.857,29.415 316.363,29.39 C316.871,29.335 317.297,29.28 317.512,29.229 C317.644,29.202 317.803,29.121 317.938,29.121 C318.07,29.121 318.097,29.229 318.097,29.361 C318.097,29.549 317.964,29.867 317.885,31.094 C317.856,31.36 317.803,32.534 317.75,32.852 C317.725,32.986 317.671,33.146 317.484,33.146 C317.297,33.146 317.244,33.013 317.244,32.773 C317.244,32.586 317.219,32.135 317.084,31.815 C316.896,31.332 316.632,31.016 315.299,30.854 C314.845,30.803 312.045,30.748 311.513,30.748 C311.38,30.748 311.326,30.828 311.326,31.016 L311.326,37.758 C311.326,37.944 311.354,38.051 311.513,38.051 C312.1,38.051 315.165,38.051 315.776,37.998 C316.42,37.944 316.818,37.863 317.058,37.6 C317.244,37.386 317.351,37.251 317.484,37.251 C317.591,37.251 317.671,37.306 317.671,37.467 C317.671,37.625 317.563,38.051 317.457,39.411 C317.433,39.944 317.351,41.012 317.351,41.195 C317.351,41.408 317.351,41.702 317.111,41.702 C316.926,41.702 316.871,41.596 316.871,41.464 C316.845,41.195 316.845,40.851 316.764,40.505 C316.632,39.971 316.258,39.57 315.271,39.464 C314.765,39.411 312.127,39.386 311.486,39.386 C311.354,39.386 311.326,39.492 311.326,39.65 L311.326,41.757 C311.326,42.66 311.3,45.114 311.326,45.889 C311.38,47.728 311.806,48.127 314.524,48.127 C315.219,48.127 316.338,48.127 317.032,47.806 C317.725,47.488 318.044,46.928 318.23,45.834 C318.284,45.54 318.339,45.435 318.524,45.435 C318.738,45.435 318.738,45.649 318.738,45.914 C318.738,46.527 318.524,48.341 318.391,48.872 C318.202,49.566 317.964,49.566 316.95,49.566 C314.952,49.566 313.486,49.512 312.34,49.488 C311.192,49.434 310.368,49.407 309.567,49.407 C309.273,49.407 308.687,49.407 308.048,49.434 C307.437,49.434 306.741,49.488 306.209,49.488 C305.861,49.488 305.676,49.407 305.676,49.221 C305.676,49.089 305.78,49.008 306.103,49.008 C306.503,49.008 306.822,48.953 307.062,48.901 C307.595,48.795 307.729,48.207 307.837,47.435 C307.968,46.314 307.968,44.208 307.968,41.757 L307.968,37.066" id="Fill-31"></path>
                <path d="M335.769,31.947 C335.451,30.961 335.157,30.321 334.782,30.055 C334.49,29.868 333.956,29.815 333.717,29.815 C333.45,29.815 333.29,29.787 333.29,29.573 C333.29,29.39 333.504,29.336 333.876,29.333 C335.263,29.333 336.729,29.416 336.97,29.416 C337.208,29.416 338.383,29.333 339.927,29.336 C340.302,29.336 340.488,29.416 340.488,29.573 C340.488,29.787 340.274,29.815 340.007,29.815 C339.795,29.815 339.527,29.815 339.341,29.922 C339.101,30.028 339.047,30.216 339.047,30.509 C339.047,30.854 339.313,31.761 339.634,32.959 C340.088,34.719 342.565,42.796 343.046,44.289 L343.127,44.289 L348.297,30.402 C348.564,29.654 348.752,29.441 348.964,29.441 C349.258,29.441 349.392,29.842 349.736,30.693 L355.281,44.102 L355.361,44.102 C355.841,42.317 357.975,35.279 358.906,32.161 C359.093,31.548 359.174,30.986 359.174,30.615 C359.174,30.187 358.933,29.815 357.893,29.815 C357.626,29.815 357.44,29.734 357.44,29.573 C357.44,29.39 357.654,29.336 358.054,29.333 C359.467,29.333 360.586,29.416 360.825,29.416 C361.012,29.416 362.159,29.333 363.038,29.336 C363.331,29.336 363.52,29.39 363.52,29.548 C363.52,29.734 363.383,29.815 363.144,29.815 C362.877,29.815 362.505,29.842 362.213,29.947 C361.573,30.187 361.28,31.255 360.719,32.773 C359.494,36.132 356.693,44.608 355.387,48.607 C355.095,49.54 354.961,49.859 354.616,49.859 C354.348,49.859 354.188,49.54 353.787,48.554 L348.245,35.199 L348.19,35.199 C347.684,36.558 344.14,45.993 342.994,48.446 C342.487,49.54 342.353,49.859 342.033,49.859 C341.767,49.859 341.66,49.565 341.42,48.873 L335.769,31.947" id="Fill-32"></path>
                <path d="M383.656,39.918 C383.656,33.947 380.218,30.242 375.848,30.242 C372.779,30.242 369.289,31.948 369.289,38.586 C369.289,44.128 372.354,48.527 377.472,48.527 C379.337,48.527 383.656,47.621 383.656,39.918 M365.608,39.412 C365.608,34.854 368.623,28.961 376.618,28.961 C383.256,28.961 387.388,32.828 387.388,38.931 C387.388,45.034 383.123,49.86 376.354,49.86 C368.702,49.86 365.608,44.128 365.608,39.412" id="Fill-33"></path>
                <path d="M397.559,39.17 C397.559,39.463 397.609,39.57 397.798,39.65 C398.359,39.837 399.158,39.918 399.824,39.918 C400.891,39.918 401.236,39.812 401.716,39.463 C402.516,38.877 403.287,37.651 403.287,35.466 C403.287,31.681 400.784,30.587 399.21,30.587 C398.542,30.587 398.063,30.615 397.798,30.693 C397.609,30.748 397.559,30.854 397.559,31.067 L397.559,39.17 L397.559,39.17 Z M394.413,37.066 C394.413,33.012 394.413,32.268 394.357,31.413 C394.304,30.509 394.091,30.08 393.214,29.894 C393,29.841 392.546,29.815 392.172,29.815 C391.878,29.815 391.72,29.761 391.72,29.574 C391.72,29.39 391.907,29.335 392.308,29.333 C393.72,29.333 395.396,29.415 395.958,29.415 C396.864,29.415 398.89,29.333 399.717,29.335 C401.396,29.335 403.18,29.496 404.623,30.48 C405.367,30.987 406.436,32.348 406.436,34.134 C406.436,36.106 405.605,37.918 402.916,40.105 C405.287,43.089 407.125,45.462 408.699,47.114 C410.191,48.66 411.287,48.848 411.687,48.927 C411.977,48.981 412.218,49.007 412.431,49.007 C412.645,49.007 412.752,49.088 412.752,49.221 C412.752,49.434 412.563,49.488 412.245,49.488 L409.713,49.488 C408.219,49.488 407.555,49.353 406.859,48.981 C405.713,48.366 404.7,47.114 403.21,45.063 C402.143,43.596 400.916,41.783 400.568,41.383 C400.435,41.225 400.278,41.196 400.09,41.196 L397.771,41.145 C397.636,41.145 397.559,41.196 397.559,41.357 L397.559,41.73 C397.559,44.208 397.559,46.314 397.689,47.435 C397.771,48.207 397.929,48.794 398.729,48.901 C399.129,48.953 399.717,49.007 400.035,49.007 C400.248,49.007 400.354,49.088 400.354,49.221 C400.354,49.407 400.171,49.488 399.824,49.488 C398.277,49.488 396.304,49.407 395.904,49.407 C395.396,49.407 393.72,49.488 392.653,49.488 C392.308,49.488 392.12,49.407 392.12,49.221 C392.12,49.088 392.226,49.007 392.546,49.007 C392.946,49.007 393.266,48.953 393.507,48.901 C394.039,48.794 394.173,48.207 394.278,47.435 C394.413,46.314 394.413,44.208 394.413,41.756 L394.413,37.066 L394.413,37.066 Z" id="Fill-34"></path>
                <path d="M420.534,41.757 C420.534,45.169 420.534,47.008 421.095,47.488 C421.547,47.889 422.241,48.072 424.317,48.072 C425.73,48.072 426.771,48.047 427.438,47.328 C427.759,46.981 428.078,46.233 428.13,45.727 C428.156,45.488 428.211,45.328 428.424,45.328 C428.61,45.328 428.637,45.463 428.637,45.781 C428.637,46.076 428.451,48.072 428.236,48.847 C428.078,49.434 427.944,49.565 426.559,49.565 C424.64,49.565 423.254,49.512 422.053,49.487 C420.854,49.434 419.895,49.408 418.803,49.408 C418.51,49.408 417.921,49.408 417.282,49.434 C416.67,49.434 415.977,49.487 415.443,49.487 C415.096,49.487 414.909,49.408 414.909,49.221 C414.909,49.088 415.017,49.008 415.337,49.008 C415.736,49.008 416.057,48.954 416.296,48.9 C416.828,48.795 416.963,48.208 417.068,47.434 C417.202,46.314 417.202,44.209 417.202,41.757 L417.202,37.066 C417.202,33.013 417.202,32.267 417.147,31.413 C417.096,30.509 416.884,30.081 416.002,29.894 C415.789,29.842 415.471,29.815 415.123,29.815 C414.831,29.815 414.671,29.761 414.671,29.574 C414.671,29.39 414.856,29.335 415.257,29.333 C416.509,29.333 418.188,29.416 418.909,29.416 C419.547,29.416 421.495,29.333 422.534,29.335 C422.908,29.335 423.093,29.39 423.093,29.574 C423.093,29.761 422.934,29.815 422.613,29.815 C422.32,29.815 421.894,29.842 421.572,29.894 C420.854,30.028 420.641,30.48 420.588,31.413 C420.534,32.267 420.534,33.013 420.534,37.066 L420.534,41.757" id="Fill-35"></path>
                <path d="M439.328,39.996 C439.328,42.824 439.355,44.876 439.381,45.382 C439.407,46.047 439.463,47.114 439.675,47.408 C440.02,47.912 441.061,48.475 443.166,48.475 C445.884,48.475 447.696,47.94 449.298,46.554 C451.002,45.089 451.534,42.661 451.534,39.918 C451.534,36.531 450.121,34.347 448.977,33.254 C446.526,30.909 443.487,30.587 441.406,30.587 C440.875,30.587 439.887,30.667 439.675,30.774 C439.435,30.88 439.355,31.015 439.355,31.31 C439.328,32.215 439.328,34.532 439.328,36.638 L439.328,39.996 L439.328,39.996 Z M435.996,37.066 C435.996,33.013 435.996,32.268 435.942,31.413 C435.888,30.509 435.675,30.08 434.797,29.895 C434.583,29.841 434.129,29.815 433.756,29.815 C433.461,29.815 433.304,29.761 433.304,29.574 C433.304,29.389 433.491,29.335 433.891,29.333 C435.304,29.333 436.982,29.416 437.729,29.416 C438.555,29.416 440.234,29.333 441.833,29.335 C445.165,29.335 449.615,29.335 452.521,32.374 C453.854,33.76 455.109,35.973 455.109,39.144 C455.109,42.502 453.696,45.063 452.202,46.582 C450.977,47.834 448.202,49.728 443.273,49.728 C442.313,49.728 441.221,49.646 440.207,49.566 C439.193,49.488 438.262,49.408 437.594,49.408 C437.301,49.408 436.716,49.408 436.075,49.435 C435.463,49.435 434.769,49.488 434.235,49.488 C433.891,49.488 433.704,49.408 433.704,49.221 C433.704,49.088 433.81,49.008 434.129,49.008 C434.529,49.008 434.849,48.953 435.091,48.901 C435.623,48.795 435.756,48.208 435.861,47.435 C435.996,46.314 435.996,44.208 435.996,41.757 L435.996,37.066 L435.996,37.066 Z" id="Fill-36"></path>
                <path d="M458.584,29.24 C459.872,29.24 460.897,30.287 460.897,31.596 C460.897,32.925 459.872,33.961 458.573,33.961 C457.287,33.961 456.24,32.925 456.24,31.596 C456.24,30.287 457.287,29.24 458.573,29.24 L458.584,29.24 L458.584,29.24 Z M458.573,29.606 C457.538,29.606 456.69,30.497 456.69,31.596 C456.69,32.715 457.538,33.595 458.584,33.595 C459.631,33.605 460.469,32.715 460.469,31.606 C460.469,30.497 459.631,29.606 458.584,29.606 L458.573,29.606 L458.573,29.606 Z M458.135,32.967 L457.715,32.967 L457.715,30.339 C457.936,30.308 458.146,30.276 458.458,30.276 C458.857,30.276 459.119,30.36 459.275,30.475 C459.432,30.59 459.516,30.768 459.516,31.02 C459.516,31.366 459.286,31.575 459.004,31.659 L459.004,31.679 C459.234,31.722 459.39,31.93 459.442,32.318 C459.505,32.726 459.568,32.883 459.611,32.967 L459.17,32.967 C459.108,32.883 459.045,32.643 458.993,32.297 C458.929,31.962 458.763,31.837 458.427,31.837 L458.135,31.837 L458.135,32.967 L458.135,32.967 Z M458.135,31.512 L458.438,31.512 C458.783,31.512 459.076,31.386 459.076,31.061 C459.076,30.831 458.909,30.601 458.438,30.601 C458.302,30.601 458.207,30.612 458.135,30.622 L458.135,31.512 L458.135,31.512 Z" id="Fill-37"></path>
            </g>
        </g>
    </g>
</svg>